<svg width="29" height="29" viewBox="0 0 29 29" fill="none" xmlns="http://www.w3.org/2000/svg">
<path d="M14.2937 25.4349C13.9295 25.4349 13.577 25.3879 13.2833 25.2821C8.7955 23.7431 1.66431 18.2802 1.66431 10.2091C1.66431 6.09725 4.98906 2.76074 9.07745 2.76074C11.0629 2.76074 12.9191 3.53613 14.2937 4.92242C15.6682 3.53613 17.5244 2.76074 19.5099 2.76074C23.5983 2.76074 26.923 6.10899 26.923 10.2091C26.923 18.2919 19.7919 23.7431 15.304 25.2821C15.0103 25.3879 14.6579 25.4349 14.2937 25.4349ZM9.07745 4.52298C5.96417 4.52298 3.42654 7.07235 3.42654 10.2091C3.42654 18.2332 11.1451 22.6975 13.859 23.6256C14.0705 23.6961 14.5286 23.6961 14.7401 23.6256C17.4422 22.6975 25.1726 18.2449 25.1726 10.2091C25.1726 7.07235 22.6349 4.52298 19.5217 4.52298C17.7359 4.52298 16.0794 5.35711 15.0103 6.80214C14.6814 7.24857 13.9295 7.24857 13.6005 6.80214C12.5079 5.34536 10.8632 4.52298 9.07745 4.52298Z" fill="#292D32"/>
</svg>
