<svg width="127" height="23" viewBox="0 0 127 23" fill="none" xmlns="http://www.w3.org/2000/svg">
<path d="M0.168 18L3.744 1.2H9.24C10.36 1.2 11.392 1.384 12.336 1.752C13.28 2.12 14.104 2.64 14.808 3.312C15.512 3.984 16.056 4.776 16.44 5.688C16.824 6.6 17.016 7.6 17.016 8.688C17.016 9.952 16.76 11.152 16.248 12.288C15.736 13.408 15.032 14.4 14.136 15.264C13.256 16.112 12.232 16.784 11.064 17.28C9.896 17.76 8.648 18 7.32 18H0.168ZM4.224 14.904H7.608C8.424 14.904 9.184 14.752 9.888 14.448C10.592 14.144 11.208 13.72 11.736 13.176C12.28 12.616 12.704 11.976 13.008 11.256C13.312 10.536 13.464 9.76 13.464 8.928C13.464 8.016 13.264 7.216 12.864 6.528C12.48 5.824 11.936 5.28 11.232 4.896C10.544 4.496 9.752 4.296 8.856 4.296H6.48L4.224 14.904ZM22.3341 18.192C21.3581 18.192 20.5261 17.968 19.8381 17.52C19.1661 17.056 18.6941 16.432 18.4221 15.648C18.1501 14.864 18.1181 13.968 18.3261 12.96L19.9101 5.496H23.1261L21.6141 12.648C21.4381 13.48 21.5421 14.152 21.9261 14.664C22.3261 15.16 22.9261 15.408 23.7261 15.408C24.2381 15.408 24.7101 15.312 25.1421 15.12C25.5901 14.912 25.9901 14.624 26.3421 14.256L28.2141 5.496H31.4301L28.7661 18H25.5501L25.7421 17.088C24.7021 17.824 23.5661 18.192 22.3341 18.192ZM37.6708 18.168C36.6308 18.168 35.6868 17.92 34.8388 17.424C34.0068 16.912 33.3428 16.216 32.8468 15.336C32.3508 14.456 32.1028 13.472 32.1028 12.384C32.1028 11.408 32.2788 10.496 32.6308 9.648C32.9988 8.784 33.5028 8.032 34.1428 7.392C34.7828 6.752 35.5268 6.248 36.3748 5.88C37.2228 5.512 38.1188 5.328 39.0628 5.328C39.7988 5.328 40.4868 5.44 41.1268 5.664C41.7828 5.888 42.3508 6.216 42.8308 6.648L43.9828 1.2L47.3668 0.48L43.6468 18H40.4548L40.5748 17.376C39.6628 17.904 38.6948 18.168 37.6708 18.168ZM38.5348 15.384C39.0468 15.384 39.5188 15.304 39.9508 15.144C40.3988 14.984 40.8068 14.744 41.1748 14.424L42.2308 9.48C41.9108 9.08 41.4788 8.76 40.9348 8.52C40.3908 8.264 39.8068 8.136 39.1828 8.136C38.4628 8.136 37.8068 8.32 37.2148 8.688C36.6228 9.04 36.1508 9.512 35.7988 10.104C35.4468 10.696 35.2708 11.36 35.2708 12.096C35.2708 12.72 35.4068 13.288 35.6788 13.8C35.9668 14.296 36.3588 14.688 36.8548 14.976C37.3508 15.248 37.9108 15.384 38.5348 15.384ZM53.2262 18.24C52.0102 18.24 50.9222 17.992 49.9622 17.496C49.0182 16.984 48.2742 16.28 47.7302 15.384C47.1862 14.472 46.9142 13.448 46.9142 12.312C46.9142 11.352 47.0902 10.448 47.4422 9.6C47.7942 8.752 48.2822 8.008 48.9062 7.368C49.5302 6.712 50.2502 6.208 51.0662 5.856C51.8822 5.488 52.7542 5.304 53.6822 5.304C54.7862 5.304 55.7622 5.568 56.6102 6.096C57.4582 6.608 58.1222 7.312 58.6022 8.208C59.0822 9.104 59.3222 10.144 59.3222 11.328C59.3222 11.504 59.3142 11.696 59.2982 11.904C59.2982 12.112 59.2662 12.424 59.2022 12.84H50.1302C50.2262 13.368 50.4262 13.84 50.7302 14.256C51.0342 14.656 51.4182 14.968 51.8822 15.192C52.3622 15.416 52.8982 15.528 53.4902 15.528C54.0182 15.528 54.5142 15.448 54.9782 15.288C55.4422 15.128 55.8502 14.904 56.2022 14.616L58.0022 16.704C57.2342 17.248 56.4742 17.64 55.7222 17.88C54.9702 18.12 54.1382 18.24 53.2262 18.24ZM50.3222 10.512H56.2982C56.2022 10.016 56.0262 9.584 55.7702 9.216C55.5142 8.848 55.1942 8.56 54.8102 8.352C54.4262 8.144 53.9942 8.04 53.5142 8.04C53.0342 8.04 52.5782 8.144 52.1462 8.352C51.7302 8.56 51.3622 8.848 51.0422 9.216C50.7382 9.584 50.4982 10.016 50.3222 10.512ZM65.5658 18.264C64.4138 18.264 63.3098 18.072 62.2538 17.688C61.1978 17.304 60.3257 16.784 59.6377 16.128L61.4858 14.04C62.1578 14.616 62.8298 15.048 63.5018 15.336C64.1898 15.624 64.8858 15.768 65.5898 15.768C66.2458 15.768 66.7738 15.64 67.1738 15.384C67.5898 15.128 67.7978 14.8 67.7978 14.4C67.7978 14.112 67.6858 13.88 67.4618 13.704C67.2378 13.528 66.8938 13.384 66.4297 13.272L64.1258 12.768C63.1018 12.544 62.3178 12.144 61.7738 11.568C61.2458 10.992 60.9818 10.264 60.9818 9.384C60.9818 8.536 61.1818 7.816 61.5818 7.224C61.9818 6.616 62.5498 6.144 63.2858 5.808C64.0378 5.472 64.9178 5.304 65.9258 5.304C66.9338 5.304 67.9018 5.472 68.8298 5.808C69.7578 6.128 70.5898 6.6 71.3258 7.224L69.5258 9.216C68.9018 8.736 68.2618 8.376 67.6058 8.136C66.9658 7.88 66.3338 7.752 65.7098 7.752C65.1338 7.752 64.6778 7.864 64.3418 8.088C64.0058 8.312 63.8378 8.616 63.8378 9C63.8378 9.304 63.9498 9.552 64.1738 9.744C64.4138 9.92 64.7978 10.064 65.3258 10.176L67.6058 10.68C68.6618 10.904 69.4698 11.304 70.0298 11.88C70.5898 12.456 70.8698 13.168 70.8698 14.016C70.8698 14.816 70.6378 15.536 70.1738 16.176C69.7098 16.816 69.0778 17.328 68.2778 17.712C67.4778 18.08 66.5738 18.264 65.5658 18.264ZM71.6707 18L75.2467 1.2L78.6068 0.48L77.3588 6.408C78.3828 5.672 79.5108 5.304 80.7428 5.304C81.7348 5.304 82.5668 5.536 83.2388 6C83.9268 6.448 84.4068 7.064 84.6788 7.848C84.9508 8.632 84.9828 9.528 84.7748 10.536L83.1908 18H79.9508L81.4868 10.848C81.6468 10.016 81.5348 9.352 81.1508 8.856C80.7668 8.344 80.1748 8.088 79.3748 8.088C78.8628 8.088 78.3828 8.184 77.9348 8.376C77.5028 8.568 77.1108 8.856 76.7588 9.24L74.8867 18H71.6707ZM90.1515 18.144C88.8555 18.144 87.8235 17.832 87.0555 17.208C86.2875 16.568 85.9035 15.72 85.9035 14.664C85.9035 13.8 86.1115 13.064 86.5275 12.456C86.9595 11.848 87.5675 11.376 88.3515 11.04C89.1355 10.704 90.0715 10.536 91.1595 10.536C91.7515 10.536 92.3355 10.592 92.9115 10.704C93.5035 10.816 94.0555 10.976 94.5675 11.184L94.7115 10.536C94.8875 9.688 94.7595 9.056 94.3275 8.64C93.9115 8.208 93.1915 7.992 92.1675 7.992C91.7035 7.992 91.1915 8.056 90.6315 8.184C90.0875 8.312 89.4235 8.52 88.6395 8.808L87.8475 6.336C88.7755 5.968 89.6555 5.704 90.4875 5.544C91.3195 5.368 92.1115 5.28 92.8635 5.28C94.1275 5.28 95.1675 5.488 95.9835 5.904C96.8155 6.32 97.3995 6.92 97.7355 7.704C98.0715 8.472 98.1195 9.4 97.8795 10.488L96.2955 18H93.1275L93.2715 17.232C92.7755 17.536 92.2715 17.768 91.7595 17.928C91.2475 18.072 90.7115 18.144 90.1515 18.144ZM91.2555 15.816C91.7035 15.816 92.1355 15.76 92.5515 15.648C92.9675 15.52 93.3595 15.344 93.7275 15.12L94.1355 13.296C93.3035 12.896 92.3915 12.696 91.3995 12.696C90.6475 12.696 90.0475 12.848 89.5995 13.152C89.1675 13.456 88.9515 13.864 88.9515 14.376C88.9515 14.824 89.1515 15.176 89.5515 15.432C89.9675 15.688 90.5355 15.816 91.2555 15.816ZM97.6616 22.896L101.358 5.496H104.55L104.406 6.144C105.318 5.6 106.294 5.328 107.334 5.328C108.39 5.328 109.334 5.584 110.166 6.096C110.998 6.608 111.662 7.304 112.158 8.184C112.654 9.048 112.902 10.024 112.902 11.112C112.902 12.104 112.718 13.024 112.35 13.872C111.998 14.72 111.502 15.472 110.862 16.128C110.238 16.768 109.502 17.272 108.654 17.64C107.822 18.008 106.918 18.192 105.942 18.192C105.206 18.192 104.518 18.072 103.878 17.832C103.238 17.576 102.678 17.232 102.198 16.8L100.878 22.896H97.6616ZM105.822 15.36C106.574 15.36 107.238 15.184 107.814 14.832C108.406 14.48 108.878 14.008 109.23 13.416C109.582 12.808 109.758 12.136 109.758 11.4C109.758 10.776 109.614 10.216 109.326 9.72C109.054 9.224 108.67 8.832 108.174 8.544C107.678 8.256 107.118 8.112 106.494 8.112C105.982 8.112 105.502 8.192 105.054 8.352C104.606 8.512 104.198 8.752 103.83 9.072L102.798 13.944C103.118 14.376 103.542 14.72 104.07 14.976C104.598 15.232 105.182 15.36 105.822 15.36ZM120.609 18.24C119.393 18.24 118.305 17.992 117.345 17.496C116.401 16.984 115.657 16.28 115.113 15.384C114.569 14.472 114.297 13.448 114.297 12.312C114.297 11.352 114.473 10.448 114.825 9.6C115.177 8.752 115.665 8.008 116.289 7.368C116.913 6.712 117.633 6.208 118.449 5.856C119.265 5.488 120.137 5.304 121.065 5.304C122.169 5.304 123.145 5.568 123.993 6.096C124.841 6.608 125.505 7.312 125.985 8.208C126.465 9.104 126.705 10.144 126.705 11.328C126.705 11.504 126.697 11.696 126.681 11.904C126.681 12.112 126.649 12.424 126.585 12.84H117.513C117.609 13.368 117.809 13.84 118.113 14.256C118.417 14.656 118.801 14.968 119.265 15.192C119.745 15.416 120.281 15.528 120.873 15.528C121.401 15.528 121.897 15.448 122.361 15.288C122.825 15.128 123.233 14.904 123.585 14.616L125.385 16.704C124.617 17.248 123.857 17.64 123.105 17.88C122.353 18.12 121.521 18.24 120.609 18.24ZM117.705 10.512H123.681C123.585 10.016 123.409 9.584 123.153 9.216C122.897 8.848 122.577 8.56 122.193 8.352C121.809 8.144 121.377 8.04 120.897 8.04C120.417 8.04 119.961 8.144 119.529 8.352C119.113 8.56 118.745 8.848 118.425 9.216C118.121 9.584 117.881 10.016 117.705 10.512Z" fill="white"/>
<path d="M0 24H127.449V26.4H0V24Z" fill="white"/>
<path d="M0.168 18L-0.810088 17.7918L-1.06726 19H0.168V18ZM3.744 1.2V0.199999H2.93445L2.76591 0.991806L3.744 1.2ZM12.336 1.752L11.9728 2.68371L11.9728 2.68371L12.336 1.752ZM14.808 3.312L15.4985 2.58864L15.4985 2.58864L14.808 3.312ZM16.44 5.688L17.3616 5.29994L17.3616 5.29994L16.44 5.688ZM16.248 12.288L17.1575 12.7038L17.1597 12.6989L16.248 12.288ZM14.136 15.264L14.8299 15.9841L14.8301 15.9838L14.136 15.264ZM11.064 17.28L11.4441 18.205L11.4549 18.2004L11.064 17.28ZM4.224 14.904L3.24588 14.696L2.98897 15.904H4.224V14.904ZM9.888 14.448L10.2844 15.3661L10.2844 15.3661L9.888 14.448ZM11.736 13.176L11.0187 12.4792L11.0184 12.4795L11.736 13.176ZM13.008 11.256L13.9293 11.645L13.9293 11.645L13.008 11.256ZM12.864 6.528L11.9861 7.00685L11.9926 7.01883L11.9995 7.03062L12.864 6.528ZM11.232 4.896L10.7294 5.76051L10.7412 5.76736L10.7531 5.7739L11.232 4.896ZM6.48 4.296V3.296H5.67031L5.50188 4.08798L6.48 4.296ZM1.14609 18.2082L4.72209 1.40819L2.76591 0.991806L-0.810088 17.7918L1.14609 18.2082ZM3.744 2.2H9.24V0.199999H3.744V2.2ZM9.24 2.2C10.2488 2.2 11.1562 2.36536 11.9728 2.68371L12.6992 0.820291C11.6278 0.402636 10.4712 0.199999 9.24 0.199999V2.2ZM11.9728 2.68371C12.8002 3.00627 13.5118 3.4572 14.1175 4.03535L15.4985 2.58864C14.6962 1.8228 13.7598 1.23373 12.6992 0.820291L11.9728 2.68371ZM14.1175 4.03535C14.7206 4.61101 15.1867 5.28832 15.5184 6.07606L17.3616 5.29994C16.9253 4.26368 16.3034 3.35699 15.4985 2.58864L14.1175 4.03535ZM15.5184 6.07606C15.8457 6.85351 16.016 7.71996 16.016 8.688H18.016C18.016 7.48004 17.8023 6.34649 17.3616 5.29994L15.5184 6.07606ZM16.016 8.688C16.016 9.81243 15.7892 10.8722 15.3363 11.8771L17.1597 12.6989C17.7308 11.4318 18.016 10.0916 18.016 8.688H16.016ZM15.3385 11.8722C14.8792 12.877 14.2487 13.7662 13.4419 14.5442L14.8301 15.9838C15.8153 15.0338 16.5928 13.939 17.1575 12.7038L15.3385 11.8722ZM13.4421 14.5439C12.6534 15.304 11.7331 15.9094 10.6731 16.3596L11.4549 18.2004C12.7309 17.6586 13.8586 16.92 14.8299 15.9841L13.4421 14.5439ZM10.6839 16.3551C9.64266 16.783 8.52445 17 7.32 17V19C8.77155 19 10.1493 18.737 11.4441 18.2049L10.6839 16.3551ZM7.32 17H0.168V19H7.32V17ZM4.224 15.904H7.608V13.904H4.224V15.904ZM7.608 15.904C8.55147 15.904 9.44736 15.7275 10.2844 15.3661L9.49156 13.5299C8.92064 13.7765 8.29653 13.904 7.608 13.904V15.904ZM10.2844 15.3661C11.1076 15.0106 11.833 14.5118 12.4536 13.8725L11.0184 12.4795C10.583 12.9282 10.0764 13.2774 9.49156 13.5299L10.2844 15.3661ZM12.4533 13.8728C13.0839 13.2236 13.577 12.4792 13.9293 11.645L12.0868 10.867C11.831 11.4728 11.4761 12.0084 11.0187 12.4792L12.4533 13.8728ZM13.9293 11.645C14.2885 10.7941 14.464 9.88487 14.464 8.928H12.464C12.464 9.63513 12.3355 10.2779 12.0868 10.867L13.9293 11.645ZM14.464 8.928C14.464 7.86561 14.2295 6.88716 13.7285 6.02538L11.9995 7.03062C12.2985 7.54484 12.464 8.16638 12.464 8.928H14.464ZM13.7419 6.04915C13.266 5.17658 12.5834 4.49405 11.7109 4.0181L10.7531 5.7739C11.2886 6.06595 11.6941 6.47142 11.9861 7.00685L13.7419 6.04915ZM11.7346 4.03149C10.8755 3.532 9.90587 3.296 8.856 3.296V5.296C9.59813 5.296 10.2125 5.46 10.7294 5.76051L11.7346 4.03149ZM8.856 3.296H6.48V5.296H8.856V3.296ZM5.50188 4.08798L3.24588 14.696L5.20213 15.112L7.45813 4.50402L5.50188 4.08798ZM19.8381 17.52L19.2699 18.3429L19.281 18.3506L19.2924 18.358L19.8381 17.52ZM18.4221 15.648L19.3668 15.3202L19.3668 15.3202L18.4221 15.648ZM18.3261 12.96L17.3478 12.7524L17.3467 12.7579L18.3261 12.96ZM19.9101 5.496V4.496H19.1L18.9318 5.2884L19.9101 5.496ZM23.1261 5.496L24.1044 5.70284L24.3596 4.496H23.1261V5.496ZM21.6141 12.648L22.5924 12.855L22.5924 12.8548L21.6141 12.648ZM21.9261 14.664L21.1261 15.264L21.1366 15.2781L21.1476 15.2918L21.9261 14.664ZM25.1421 15.12L25.5482 16.0338L25.5557 16.0305L25.5632 16.027L25.1421 15.12ZM26.3421 14.256L27.0647 14.9472L27.2607 14.7423L27.32 14.465L26.3421 14.256ZM28.2141 5.496V4.496H27.4052L27.2361 5.28702L28.2141 5.496ZM31.4301 5.496L32.4081 5.70437L32.6656 4.496H31.4301V5.496ZM28.7661 18V19H29.5755L29.7441 18.2084L28.7661 18ZM25.5501 18L24.5715 17.794L24.3176 19H25.5501V18ZM25.7421 17.088L26.7206 17.294L27.246 14.7986L25.1644 16.2717L25.7421 17.088ZM22.3341 17.192C21.5147 17.192 20.8808 17.0057 20.3837 16.682L19.2924 18.358C20.1713 18.9303 21.2015 19.192 22.3341 19.192V17.192ZM20.4063 16.6971C19.9122 16.356 19.5703 15.9068 19.3668 15.3202L17.4773 15.9758C17.8178 16.9572 18.4199 17.756 19.2699 18.3429L20.4063 16.6971ZM19.3668 15.3202C19.1666 14.743 19.1252 14.0357 19.3054 13.1621L17.3467 12.7579C17.111 13.9003 17.1336 14.985 17.4773 15.9758L19.3668 15.3202ZM19.3043 13.1676L20.8883 5.70359L18.9318 5.2884L17.3478 12.7524L19.3043 13.1676ZM19.9101 6.496H23.1261V4.496H19.9101V6.496ZM22.1477 5.28916L20.6357 12.4412L22.5924 12.8548L24.1044 5.70284L22.1477 5.28916ZM20.6357 12.441C20.4208 13.4571 20.5168 14.4517 21.1261 15.264L22.7261 14.064C22.5673 13.8523 22.4554 13.5029 22.5924 12.855L20.6357 12.441ZM21.1476 15.2918C21.7848 16.0819 22.7081 16.408 23.7261 16.408V14.408C23.144 14.408 22.8673 14.2381 22.7045 14.0362L21.1476 15.2918ZM23.7261 16.408C24.3662 16.408 24.978 16.2872 25.5482 16.0338L24.7359 14.2062C24.4421 14.3368 24.1099 14.408 23.7261 14.408V16.408ZM25.5632 16.027C26.1278 15.7649 26.6292 15.4025 27.0647 14.9472L25.6194 13.5648C25.3509 13.8455 25.0524 14.0591 24.721 14.213L25.5632 16.027ZM27.32 14.465L29.192 5.70498L27.2361 5.28702L25.3641 14.047L27.32 14.465ZM28.2141 6.496H31.4301V4.496H28.2141V6.496ZM30.452 5.28762L27.788 17.7916L29.7441 18.2084L32.4081 5.70437L30.452 5.28762ZM28.7661 17H25.5501V19H28.7661V17ZM26.5286 18.206L26.7206 17.294L24.7635 16.882L24.5715 17.794L26.5286 18.206ZM25.1644 16.2717C24.2872 16.8925 23.3517 17.192 22.3341 17.192V19.192C23.7804 19.192 25.117 18.7555 26.3197 17.9043L25.1644 16.2717ZM34.8388 17.424L34.3147 18.2757L34.3243 18.2815L34.3339 18.2872L34.8388 17.424ZM32.8468 15.336L33.718 14.845L33.718 14.845L32.8468 15.336ZM32.6308 9.648L31.7107 9.25612L31.7072 9.26462L32.6308 9.648ZM34.1428 7.392L33.4357 6.68489L33.4357 6.68489L34.1428 7.392ZM36.3748 5.88L36.7729 6.79735L36.7729 6.79735L36.3748 5.88ZM41.1268 5.664L40.7965 6.60789L40.8037 6.61035L41.1268 5.664ZM42.8308 6.648L42.1618 7.39129L43.4505 8.55109L43.8092 6.85488L42.8308 6.648ZM43.9828 1.2L43.7747 0.221893L43.1389 0.357166L43.0044 0.99312L43.9828 1.2ZM47.3668 0.48L48.345 0.687698L48.6648 -0.818558L47.1587 -0.498106L47.3668 0.48ZM43.6468 18V19H44.4568L44.625 18.2077L43.6468 18ZM40.4548 18L39.4728 17.8112L39.2442 19H40.4548V18ZM40.5748 17.376L41.5568 17.5648L41.9708 15.4123L40.0738 16.5106L40.5748 17.376ZM39.9508 15.144L39.6145 14.2022L39.6035 14.2063L39.9508 15.144ZM41.1748 14.424L41.831 15.1786L42.083 14.9595L42.1528 14.6329L41.1748 14.424ZM42.2308 9.48L43.2088 9.68888L43.3078 9.22539L43.0117 8.8553L42.2308 9.48ZM40.9348 8.52L40.509 9.42482L40.52 9.43L40.5312 9.43492L40.9348 8.52ZM37.2148 8.688L37.7259 9.54754L37.7344 9.54249L37.7427 9.53728L37.2148 8.688ZM35.7988 10.104L36.6583 10.6151L36.6583 10.6151L35.7988 10.104ZM35.6788 13.8L34.7957 14.2692L34.8045 14.2858L34.814 14.3021L35.6788 13.8ZM36.8548 14.976L36.3527 15.8408L36.3633 15.8469L36.374 15.8528L36.8548 14.976ZM37.6708 17.168C36.7975 17.168 36.0295 16.9619 35.3437 16.5608L34.3339 18.2872C35.3442 18.8781 36.4642 19.168 37.6708 19.168V17.168ZM35.3629 16.5723C34.6803 16.1523 34.1337 15.5825 33.718 14.845L31.9757 15.827C32.552 16.8495 33.3333 17.6717 34.3147 18.2757L35.3629 16.5723ZM33.718 14.845C33.3129 14.1263 33.1028 13.3136 33.1028 12.384H31.1028C31.1028 13.6304 31.3887 14.7857 31.9757 15.827L33.718 14.845ZM33.1028 12.384C33.1028 11.5312 33.256 10.7503 33.5544 10.0314L31.7072 9.26462C31.3017 10.2417 31.1028 11.2848 31.1028 12.384H33.1028ZM33.5508 10.0399C33.8706 9.28909 34.3038 8.64522 34.8499 8.09911L33.4357 6.68489C32.7018 7.41878 32.127 8.27891 31.7108 9.25614L33.5508 10.0399ZM34.8499 8.09911C35.3991 7.5499 36.0377 7.1164 36.7729 6.79735L35.9767 4.96265C35.0159 5.3796 34.1665 5.9541 33.4357 6.68489L34.8499 8.09911ZM36.7729 6.79735C37.4926 6.48504 38.2528 6.328 39.0628 6.328V4.328C37.9848 4.328 36.9531 4.53896 35.9767 4.96266L36.7729 6.79735ZM39.0628 6.328C39.6959 6.328 40.2713 6.42407 40.7965 6.60786L41.4572 4.72014C40.7023 4.45593 39.9017 4.328 39.0628 4.328V6.328ZM40.8037 6.61035C41.3414 6.79395 41.7894 7.05612 42.1618 7.39129L43.4998 5.90471C42.9122 5.37588 42.2243 4.98205 41.45 4.71765L40.8037 6.61035ZM43.8092 6.85488L44.9612 1.40688L43.0044 0.99312L41.8524 6.44112L43.8092 6.85488ZM44.1909 2.1781L47.5749 1.45811L47.1587 -0.498106L43.7747 0.221893L44.1909 2.1781ZM46.3886 0.272301L42.6686 17.7923L44.625 18.2077L48.345 0.687698L46.3886 0.272301ZM43.6468 17H40.4548V19H43.6468V17ZM41.4368 18.1888L41.5568 17.5648L39.5928 17.1872L39.4728 17.8112L41.4368 18.1888ZM40.0738 16.5106C39.3094 16.9531 38.5136 17.168 37.6708 17.168V19.168C38.876 19.168 40.0162 18.8549 41.0758 18.2414L40.0738 16.5106ZM38.5348 16.384C39.1522 16.384 39.7433 16.2873 40.2981 16.0817L39.6035 14.2063C39.2944 14.3207 38.9414 14.384 38.5348 14.384V16.384ZM40.2871 16.0857C40.8555 15.8828 41.3714 15.5783 41.831 15.1786L40.5186 13.6694C40.2422 13.9097 39.9422 14.0852 39.6145 14.2023L40.2871 16.0857ZM42.1528 14.6329L43.2088 9.68888L41.2529 9.27112L40.1969 14.2151L42.1528 14.6329ZM43.0117 8.8553C42.5761 8.3108 42.006 7.89958 41.3385 7.60508L40.5312 9.43492C40.9516 9.62042 41.2455 9.84919 41.4499 10.1047L43.0117 8.8553ZM41.3606 7.61518C40.6783 7.29411 39.9483 7.136 39.1828 7.136V9.136C39.6653 9.136 40.1033 9.23389 40.509 9.42482L41.3606 7.61518ZM39.1828 7.136C38.2827 7.136 37.4427 7.36885 36.6869 7.83871L37.7427 9.53728C38.1709 9.27115 38.6429 9.136 39.1828 9.136V7.136ZM36.7037 7.82846C35.9683 8.26573 35.3765 8.85752 34.9393 9.59292L36.6583 10.6151C36.9251 10.1665 37.2773 9.81427 37.7259 9.54754L36.7037 7.82846ZM34.9393 9.59292C34.489 10.3502 34.2708 11.1929 34.2708 12.096H36.2708C36.2708 11.5271 36.4046 11.0418 36.6583 10.6151L34.9393 9.59292ZM34.2708 12.096C34.2708 12.8708 34.4412 13.6018 34.7957 14.2692L36.5619 13.3308C36.3725 12.9742 36.2708 12.5692 36.2708 12.096H34.2708ZM34.814 14.3021C35.1893 14.9485 35.7063 15.4655 36.3527 15.8408L37.3569 14.1112C37.0113 13.9105 36.7443 13.6435 36.5436 13.2979L34.814 14.3021ZM36.374 15.8528C37.0321 16.2137 37.7604 16.384 38.5348 16.384V14.384C38.0612 14.384 37.6695 14.2823 37.3356 14.0992L36.374 15.8528ZM49.9622 17.496L49.4854 18.375L49.4942 18.3798L49.5032 18.3844L49.9622 17.496ZM47.7302 15.384L46.8713 15.8963L46.8754 15.903L47.7302 15.384ZM47.4422 9.6L46.5186 9.21662L46.5186 9.21662L47.4422 9.6ZM48.9062 7.368L49.6222 8.06615L49.6307 8.05721L48.9062 7.368ZM51.0662 5.856L51.4623 6.77421L51.4698 6.77096L51.4773 6.76759L51.0662 5.856ZM56.6102 6.096L56.0816 6.94498L56.0933 6.95206L56.6102 6.096ZM58.6022 8.208L59.4837 7.73578L59.4837 7.73578L58.6022 8.208ZM59.2982 11.904L58.3011 11.8273L58.2982 11.8656V11.904H59.2982ZM59.2022 12.84V13.84H60.0601L60.1906 12.9921L59.2022 12.84ZM50.1302 12.84V11.84H48.932L49.1463 13.0189L50.1302 12.84ZM50.7302 14.256L49.9228 14.846L49.9283 14.8536L49.934 14.8611L50.7302 14.256ZM51.8822 15.192L51.4474 16.0926L51.4593 16.0982L51.8822 15.192ZM54.9782 15.288L55.3042 16.2334L55.3042 16.2334L54.9782 15.288ZM56.2022 14.616L56.9596 13.9631L56.3232 13.2249L55.569 13.842L56.2022 14.616ZM58.0022 16.704L58.5802 17.52L59.4778 16.8842L58.7596 16.0511L58.0022 16.704ZM55.7222 17.88L55.4181 16.9273L55.4181 16.9273L55.7222 17.88ZM50.3222 10.512L49.3798 10.1776L48.9063 11.512H50.3222V10.512ZM56.2982 10.512V11.512H57.5103L57.28 10.322L56.2982 10.512ZM54.8102 8.352L54.3339 9.23129L54.3339 9.23129L54.8102 8.352ZM52.1462 8.352L51.7124 7.451L51.7056 7.45424L51.699 7.45757L52.1462 8.352ZM51.0422 9.216L50.2876 8.55982L50.2793 8.56937L50.2712 8.57912L51.0422 9.216ZM53.2262 17.24C52.1497 17.24 51.2223 17.0215 50.4212 16.6076L49.5032 18.3844C50.622 18.9625 51.8707 19.24 53.2262 19.24V17.24ZM50.439 16.617C49.6466 16.1872 49.0347 15.6058 48.585 14.865L46.8754 15.903C47.5136 16.9542 48.3898 17.7808 49.4854 18.375L50.439 16.617ZM48.589 14.8717C48.1439 14.1255 47.9142 13.2807 47.9142 12.312H45.9142C45.9142 13.6153 46.2285 14.8185 46.8714 15.8963L48.589 14.8717ZM47.9142 12.312C47.9142 11.4775 48.0665 10.7043 48.3658 9.98338L46.5186 9.21662C46.1139 10.1917 45.9142 11.2265 45.9142 12.312H47.9142ZM48.3658 9.98338C48.6705 9.24925 49.0891 8.61282 49.6222 8.0661L48.1902 6.6699C47.4752 7.40318 46.9179 8.25475 46.5186 9.21662L48.3658 9.98338ZM49.6307 8.05721C50.1636 7.49703 50.7725 7.07178 51.4623 6.77421L50.6701 4.93779C49.7279 5.34422 48.8968 5.92697 48.1816 6.67879L49.6307 8.05721ZM51.4773 6.76759C52.1593 6.46002 52.8906 6.304 53.6822 6.304V4.304C52.6178 4.304 51.6051 4.51598 50.6551 4.94441L51.4773 6.76759ZM53.6822 6.304C54.6196 6.304 55.4086 6.52586 56.0816 6.9449L57.1387 5.2471C56.1157 4.61014 54.9527 4.304 53.6822 4.304V6.304ZM56.0933 6.95206C56.7833 7.36868 57.3232 7.93826 57.7207 8.68022L59.4837 7.73578C58.9211 6.68574 58.133 5.84732 57.1271 5.23994L56.0933 6.95206ZM57.7207 8.68022C58.111 9.40871 58.3222 10.2815 58.3222 11.328H60.3222C60.3222 10.0065 60.0534 8.79929 59.4837 7.73578L57.7207 8.68022ZM58.3222 11.328C58.3222 11.4742 58.3155 11.6403 58.3011 11.8273L60.2952 11.9807C60.3129 11.7517 60.3222 11.5338 60.3222 11.328H58.3222ZM58.2982 11.904C58.2982 12.0323 58.2762 12.2823 58.2138 12.6879L60.1906 12.9921C60.2561 12.5657 60.2982 12.1917 60.2982 11.904H58.2982ZM59.2022 11.84H50.1302V13.84H59.2022V11.84ZM49.1463 13.0189C49.2682 13.6891 49.5259 14.303 49.9228 14.846L51.5376 13.666C51.3264 13.377 51.1842 13.0469 51.1141 12.6611L49.1463 13.0189ZM49.934 14.8611C50.336 15.39 50.8451 15.8018 51.4474 16.0926L52.3169 14.2914C51.9913 14.1342 51.7324 13.922 51.5263 13.6509L49.934 14.8611ZM51.4593 16.0982C52.0865 16.3909 52.7694 16.528 53.4902 16.528V14.528C53.027 14.528 52.6378 14.4411 52.3051 14.2858L51.4593 16.0982ZM53.4902 16.528C54.1207 16.528 54.7276 16.4322 55.3042 16.2334L54.6522 14.3426C54.3008 14.4638 53.9157 14.528 53.4902 14.528V16.528ZM55.3042 16.2334C55.871 16.0379 56.3849 15.7585 56.8354 15.39L55.569 13.842C55.3154 14.0495 55.0133 14.2181 54.6522 14.3426L55.3042 16.2334ZM55.4448 15.2689L57.2448 17.3569L58.7596 16.0511L56.9596 13.9631L55.4448 15.2689ZM57.4242 15.888C56.7243 16.3837 56.0557 16.7239 55.4181 16.9273L56.0262 18.8327C56.8927 18.5561 57.744 18.1123 58.5802 17.52L57.4242 15.888ZM55.4181 16.9273C54.7784 17.1315 54.0507 17.24 53.2262 17.24V19.24C54.2257 19.24 55.162 19.1085 56.0262 18.8327L55.4181 16.9273ZM50.3222 11.512H56.2982V9.512H50.3222V11.512ZM57.28 10.322C57.1608 9.70653 56.9362 9.14104 56.5911 8.64493L54.9493 9.78706C55.1162 10.027 55.2435 10.3255 55.3164 10.702L57.28 10.322ZM56.5911 8.64493C56.2483 8.1522 55.8116 7.75713 55.2865 7.47271L54.3339 9.23129C54.5768 9.36287 54.7801 9.5438 54.9493 9.78706L56.5911 8.64493ZM55.2865 7.47271C54.7421 7.17783 54.1437 7.04 53.5142 7.04V9.04C53.8447 9.04 54.1103 9.11017 54.3339 9.23129L55.2865 7.47271ZM53.5142 7.04C52.8842 7.04 52.2799 7.17776 51.7124 7.451L52.58 9.253C52.8765 9.11024 53.1842 9.04 53.5142 9.04V7.04ZM51.699 7.45757C51.1603 7.72693 50.6892 8.09793 50.2876 8.55982L51.7968 9.87218C52.0351 9.59807 52.3001 9.39307 52.5934 9.24643L51.699 7.45757ZM50.2712 8.57912C49.8856 9.04593 49.5908 9.58279 49.3798 10.1776L51.2646 10.8464C51.4056 10.4492 51.5908 10.1221 51.8131 9.85288L50.2712 8.57912ZM62.2538 17.688L62.5955 16.7482L62.5955 16.7482L62.2538 17.688ZM59.6377 16.128L58.8889 15.4652L58.2503 16.1868L58.9477 16.8517L59.6377 16.128ZM61.4858 14.04L62.1365 13.2807L61.3892 12.6402L60.7369 13.3772L61.4858 14.04ZM63.5018 15.336L63.1078 16.2552L63.1156 16.2584L63.5018 15.336ZM67.1738 15.384L66.6497 14.5323L66.6421 14.537L66.6347 14.5417L67.1738 15.384ZM67.4618 13.704L66.8439 14.4903L66.8439 14.4903L67.4618 13.704ZM66.4297 13.272L66.6644 12.2999L66.6539 12.2974L66.6434 12.2951L66.4297 13.272ZM64.1258 12.768L64.3394 11.7911L64.3394 11.7911L64.1258 12.768ZM61.7738 11.568L61.0366 12.2437L61.0416 12.2492L61.0467 12.2546L61.7738 11.568ZM61.5818 7.224L62.4104 7.7839L62.4172 7.77362L61.5818 7.224ZM63.2858 5.808L62.8778 4.89496L62.8705 4.89831L63.2858 5.808ZM68.8298 5.808L68.4893 6.74827L68.4965 6.75087L68.5038 6.75337L68.8298 5.808ZM71.3258 7.224L72.0677 7.89444L72.7597 7.12868L71.9724 6.46124L71.3258 7.224ZM69.5258 9.216L68.916 10.0086L69.6483 10.5719L70.2677 9.88644L69.5258 9.216ZM67.6058 8.136L67.2344 9.06448L67.2482 9.07001L67.2622 9.07512L67.6058 8.136ZM64.3418 8.088L63.7871 7.25595L63.787 7.25595L64.3418 8.088ZM64.1738 9.744L63.523 10.5033L63.5518 10.528L63.5824 10.5504L64.1738 9.744ZM65.3258 10.176L65.5416 9.19954L65.5333 9.19777L65.3258 10.176ZM67.6058 10.68L67.3899 11.6565L67.3982 11.6582L67.6058 10.68ZM70.0298 11.88L70.7467 11.1829L70.7467 11.1829L70.0298 11.88ZM70.1738 16.176L69.3641 15.589L69.3641 15.589L70.1738 16.176ZM68.2778 17.712L68.6957 18.6205L68.7031 18.6171L68.7105 18.6135L68.2778 17.712ZM65.5658 17.264C64.5273 17.264 63.5392 17.0914 62.5955 16.7482L61.912 18.6278C63.0803 19.0526 64.3002 19.264 65.5658 19.264V17.264ZM62.5955 16.7482C61.646 16.4029 60.8994 15.9492 60.3278 15.4043L58.9477 16.8517C59.7521 17.6188 60.7495 18.2051 61.912 18.6278L62.5955 16.7482ZM60.3866 16.7908L62.2346 14.7028L60.7369 13.3772L58.8889 15.4652L60.3866 16.7908ZM60.835 14.7993C61.5683 15.4279 62.3254 15.9198 63.1078 16.2551L63.8957 14.4169C63.3341 14.1762 62.7472 13.8041 62.1365 13.2807L60.835 14.7993ZM63.1156 16.2584C63.9185 16.5945 64.7454 16.768 65.5898 16.768V14.768C65.0261 14.768 64.461 14.6535 63.8879 14.4136L63.1156 16.2584ZM65.5898 16.768C66.3666 16.768 67.1015 16.6175 67.7128 16.2263L66.6347 14.5417C66.446 14.6625 66.1249 14.768 65.5898 14.768V16.768ZM67.6978 16.2357C68.3337 15.8443 68.7978 15.2279 68.7978 14.4H66.7978C66.7978 14.4123 66.7963 14.415 66.7972 14.4118C66.7982 14.4083 66.7993 14.4072 66.7972 14.4105C66.7928 14.4174 66.7607 14.464 66.6497 14.5323L67.6978 16.2357ZM68.7978 14.4C68.7978 13.8091 68.5479 13.2857 68.0796 12.9177L66.8439 14.4903C66.8477 14.4932 66.844 14.4909 66.8368 14.4822C66.8294 14.4732 66.8208 14.4605 66.8132 14.4447C66.8056 14.4291 66.8013 14.4151 66.7992 14.4051C66.7971 14.3954 66.7978 14.393 66.7978 14.4H68.7978ZM68.0796 12.9177C67.6911 12.6125 67.1859 12.4258 66.6644 12.2999L66.1951 14.2441C66.6016 14.3422 66.7844 14.4435 66.8439 14.4903L68.0796 12.9177ZM66.6434 12.2951L64.3394 11.7911L63.9121 13.7449L66.2161 14.2489L66.6434 12.2951ZM64.3394 11.7911C63.4493 11.5964 62.8685 11.2708 62.5008 10.8814L61.0467 12.2546C61.767 13.0172 62.7542 13.4916 63.9121 13.7449L64.3394 11.7911ZM62.5109 10.8923C62.1736 10.5243 61.9818 10.0478 61.9818 9.384H59.9818C59.9818 10.4802 60.3179 11.4597 61.0366 12.2437L62.5109 10.8923ZM61.9818 9.384C61.9818 8.69751 62.1416 8.18159 62.4103 7.78386L60.7532 6.66414C60.2219 7.45041 59.9818 8.37449 59.9818 9.384H61.9818ZM62.4172 7.77362C62.7025 7.33995 63.1164 6.98457 63.701 6.71769L62.8705 4.89831C61.9831 5.30343 61.261 5.89205 60.7463 6.67438L62.4172 7.77362ZM63.6937 6.72101C64.292 6.45369 65.0276 6.304 65.9258 6.304V4.304C64.8079 4.304 63.7835 4.49031 62.8778 4.89499L63.6937 6.72101ZM65.9258 6.304C66.8202 6.304 67.6728 6.45263 68.4893 6.74827L69.1702 4.86773C68.1307 4.49136 67.0473 4.304 65.9258 4.304V6.304ZM68.5038 6.75337C69.3165 7.03364 70.0394 7.4444 70.6791 7.98676L71.9724 6.46124C71.1401 5.75559 70.199 5.22236 69.1557 4.86263L68.5038 6.75337ZM70.5838 6.55355L68.7838 8.54555L70.2677 9.88644L72.0677 7.89444L70.5838 6.55355ZM70.1355 8.42338C69.4408 7.88905 68.7123 7.476 67.9493 7.19688L67.2622 9.07512C67.8112 9.276 68.3627 9.58295 68.916 10.0086L70.1355 8.42338ZM67.9771 7.20752C67.2314 6.90922 66.4736 6.752 65.7098 6.752V8.752C66.1939 8.752 66.7001 8.85078 67.2344 9.06448L67.9771 7.20752ZM65.7098 6.752C65.0168 6.752 64.3435 6.88499 63.7871 7.25595L64.8964 8.92005C65.012 8.84301 65.2507 8.752 65.7098 8.752V6.752ZM63.787 7.25595C63.19 7.65398 62.8378 8.26154 62.8378 9H64.8378C64.8378 8.97725 64.8402 8.96634 64.8407 8.96422C64.8411 8.96258 64.8407 8.96464 64.839 8.96769C64.8374 8.97057 64.8379 8.96851 64.8446 8.96148C64.8517 8.95403 64.8673 8.93948 64.8965 8.92005L63.787 7.25595ZM62.8378 9C62.8378 9.58574 63.0697 10.1147 63.523 10.5033L64.8245 8.98474C64.8183 8.97936 64.8183 8.97838 64.8215 8.98259C64.8249 8.987 64.8293 8.99389 64.8331 9.00241C64.8369 9.01088 64.8384 9.01696 64.8388 9.01865C64.8391 9.02004 64.8378 9.01446 64.8378 9H62.8378ZM63.5824 10.5504C63.9951 10.8531 64.5463 11.0329 65.1182 11.1542L65.5333 9.19777C65.0492 9.09508 64.8324 8.98692 64.7651 8.93759L63.5824 10.5504ZM65.1099 11.1524L67.3899 11.6564L67.8216 9.70357L65.5416 9.19957L65.1099 11.1524ZM67.3982 11.6582C68.3255 11.8549 68.9311 12.1845 69.3128 12.5771L70.7467 11.1829C70.0084 10.4235 68.998 9.95308 67.8133 9.70177L67.3982 11.6582ZM69.3128 12.5771C69.6804 12.9552 69.8698 13.4123 69.8698 14.016H71.8698C71.8698 12.9237 71.4991 11.9568 70.7467 11.1829L69.3128 12.5771ZM69.8698 14.016C69.8698 14.6079 69.7028 15.1219 69.3641 15.589L70.9834 16.763C71.5727 15.9501 71.8698 15.0241 71.8698 14.016H69.8698ZM69.3641 15.589C69.0091 16.0787 68.5139 16.4894 67.845 16.8105L68.7105 18.6135C69.6416 18.1666 70.4104 17.5533 70.9834 16.763L69.3641 15.589ZM67.8598 16.8035C67.2086 17.1031 66.4503 17.264 65.5658 17.264V19.264C66.6972 19.264 67.7469 19.0569 68.6957 18.6205L67.8598 16.8035ZM71.6707 18L70.6927 17.7918L70.4355 19H71.6707V18ZM75.2467 1.2L75.0372 0.222196L74.4036 0.357977L74.2687 0.991806L75.2467 1.2ZM78.6068 0.48L79.5853 0.68601L79.9024 -0.820347L78.3972 -0.497803L78.6068 0.48ZM77.3588 6.408L76.3802 6.20199L75.8491 8.72454L77.9424 7.22001L77.3588 6.408ZM83.2388 6L82.6706 6.8229L82.6817 6.8306L82.6931 6.838L83.2388 6ZM84.6788 7.848L83.734 8.17577L83.734 8.17577L84.6788 7.848ZM84.7748 10.536L85.753 10.7436L85.7541 10.7381L84.7748 10.536ZM83.1908 18V19H84.0008L84.169 18.2076L83.1908 18ZM79.9508 18L78.973 17.79L78.7132 19H79.9508V18ZM81.4868 10.848L82.4645 11.058L82.4667 11.0474L82.4688 11.0368L81.4868 10.848ZM81.1508 8.856L80.3507 9.456L80.3553 9.46212L80.36 9.46817L81.1508 8.856ZM77.9348 8.376L77.5408 7.45677L77.5286 7.46219L77.9348 8.376ZM76.7588 9.24L76.0216 8.56428L75.8377 8.76489L75.7808 9.03102L76.7588 9.24ZM74.8867 18V19H75.6956L75.8647 18.209L74.8867 18ZM72.6488 18.2082L76.2248 1.40819L74.2687 0.991806L70.6927 17.7918L72.6488 18.2082ZM75.4563 2.1778L78.8163 1.4578L78.3972 -0.497803L75.0372 0.222196L75.4563 2.1778ZM77.6282 0.273989L76.3802 6.20199L78.3373 6.61401L79.5853 0.68601L77.6282 0.273989ZM77.9424 7.22001C78.8006 6.60316 79.7254 6.304 80.7428 6.304V4.304C79.2961 4.304 77.9649 4.74084 76.7751 5.59598L77.9424 7.22001ZM80.7428 6.304C81.576 6.304 82.1986 6.49704 82.6706 6.8229L83.8069 5.1771C82.9349 4.57496 81.8935 4.304 80.7428 4.304V6.304ZM82.6931 6.838C83.193 7.16351 83.5339 7.59897 83.734 8.17577L85.6235 7.52023C85.2796 6.52903 84.6605 5.73249 83.7844 5.162L82.6931 6.838ZM83.734 8.17577C83.9343 8.75299 83.9757 9.46029 83.7954 10.3339L85.7541 10.7381C85.9898 9.59571 85.9672 8.51101 85.6235 7.52023L83.734 8.17577ZM83.7965 10.3284L82.2125 17.7924L84.169 18.2076L85.753 10.7436L83.7965 10.3284ZM83.1908 17H79.9508V19H83.1908V17ZM80.9285 18.21L82.4645 11.058L80.509 10.638L78.973 17.79L80.9285 18.21ZM82.4688 11.0368C82.663 10.0266 82.5571 9.03898 81.9415 8.24383L80.36 9.46817C80.5124 9.66502 80.6305 10.0054 80.5047 10.6592L82.4688 11.0368ZM81.9508 8.256C81.331 7.42971 80.4022 7.088 79.3748 7.088V9.088C79.9473 9.088 80.2025 9.25829 80.3507 9.456L81.9508 8.256ZM79.3748 7.088C78.7343 7.088 78.1195 7.20883 77.5408 7.45685L78.3287 9.29514C78.646 9.15917 78.9912 9.088 79.3748 9.088V7.088ZM77.5286 7.46219C76.9588 7.71542 76.4569 8.0894 76.0216 8.56428L77.4959 9.91572C77.7646 9.6226 78.0467 9.42058 78.3409 9.28981L77.5286 7.46219ZM75.7808 9.03102L73.9088 17.791L75.8647 18.209L77.7367 9.44898L75.7808 9.03102ZM74.8867 17H71.6707V19H74.8867V17ZM87.0555 17.208L86.4153 17.9763L86.4249 17.9841L87.0555 17.208ZM86.5275 12.456L85.7123 11.8768L85.7072 11.884L85.7022 11.8913L86.5275 12.456ZM88.3515 11.04L88.7454 11.9591L88.3515 11.04ZM92.9115 10.704L92.7206 11.6856L92.7256 11.6866L92.9115 10.704ZM94.5675 11.184L94.1911 12.1105L95.2871 12.5557L95.5437 11.4009L94.5675 11.184ZM94.7115 10.536L95.6878 10.753L95.6906 10.7392L94.7115 10.536ZM94.3275 8.64L93.6072 9.33364L93.6203 9.34723L93.6339 9.36032L94.3275 8.64ZM90.6315 8.184L90.4087 7.20912L90.4025 7.21058L90.6315 8.184ZM88.6395 8.808L87.6872 9.11311L88.0054 10.1063L88.9843 9.74667L88.6395 8.808ZM87.8475 6.336L87.4789 5.40642L86.61 5.75098L86.8952 6.64111L87.8475 6.336ZM90.4875 5.544L90.6763 6.526L90.6854 6.52426L90.6945 6.52235L90.4875 5.544ZM95.9835 5.904L95.5293 6.79493L95.5363 6.79843L95.9835 5.904ZM97.7355 7.704L96.8163 8.09793L96.8193 8.10482L97.7355 7.704ZM97.8795 10.488L96.9029 10.2726L96.901 10.2817L97.8795 10.488ZM96.2955 18V19H97.1066L97.274 18.2063L96.2955 18ZM93.1275 18L92.1446 17.8157L91.9226 19H93.1275V18ZM93.2715 17.232L94.2544 17.4163L94.6695 15.2023L92.7489 16.3794L93.2715 17.232ZM91.7595 17.928L92.0302 18.8907L92.0441 18.8868L92.0578 18.8825L91.7595 17.928ZM92.5515 15.648L92.8115 16.6136L92.8286 16.609L92.8456 16.6038L92.5515 15.648ZM93.7275 15.12L94.2474 15.9742L94.6106 15.7532L94.7034 15.3383L93.7275 15.12ZM94.1355 13.296L95.1114 13.5143L95.2848 12.739L94.5688 12.3947L94.1355 13.296ZM89.5995 13.152L89.038 12.3245L89.031 12.3293L89.024 12.3342L89.5995 13.152ZM89.5515 15.432L89.0124 16.2743L89.0199 16.279L89.0274 16.2837L89.5515 15.432ZM90.1515 17.144C89.0134 17.144 88.2271 16.8715 87.6861 16.4319L86.4249 17.9841C87.4199 18.7925 88.6976 19.144 90.1515 19.144V17.144ZM87.6957 16.4398C87.17 16.0017 86.9035 15.4424 86.9035 14.664H84.9035C84.9035 15.9976 85.405 17.1343 86.4153 17.9762L87.6957 16.4398ZM86.9035 14.664C86.9035 13.9658 87.0692 13.4352 87.3528 13.0207L85.7022 11.8913C85.1538 12.6928 84.9035 13.6342 84.9035 14.664H86.9035ZM87.3427 13.0352C87.6536 12.5976 88.1056 12.2333 88.7454 11.9591L87.9576 10.1209C87.0294 10.5187 86.2654 11.0984 85.7123 11.8768L87.3427 13.0352ZM88.7454 11.9591C89.3757 11.689 90.1711 11.536 91.1595 11.536V9.536C89.9719 9.536 88.8953 9.71899 87.9576 10.1209L88.7454 11.9591ZM91.1595 11.536C91.688 11.536 92.2081 11.586 92.7206 11.6856L93.1024 9.72238C92.4629 9.59805 91.815 9.536 91.1595 9.536V11.536ZM92.7256 11.6866C93.2582 11.7873 93.7458 11.9296 94.1911 12.1105L94.9439 10.2575C94.3652 10.0224 93.7488 9.84467 93.0974 9.72143L92.7256 11.6866ZM95.5437 11.4009L95.6877 10.7529L93.7353 10.3191L93.5913 10.9671L95.5437 11.4009ZM95.6906 10.7392C95.9028 9.71711 95.8002 8.66992 95.0211 7.91968L93.6339 9.36032C93.7188 9.44208 93.8722 9.65889 93.7324 10.3328L95.6906 10.7392ZM95.0478 7.94636C94.3468 7.21834 93.2824 6.992 92.1675 6.992V8.992C93.1006 8.992 93.4762 9.19766 93.6072 9.33364L95.0478 7.94636ZM92.1675 6.992C91.6133 6.992 91.0252 7.06821 90.4087 7.20914L90.8543 9.15886C91.3578 9.04379 91.7937 8.992 92.1675 8.992V6.992ZM90.4025 7.21058C89.8051 7.35113 89.1 7.5735 88.2947 7.86933L88.9843 9.74667C89.747 9.4665 90.3699 9.27287 90.8605 9.15742L90.4025 7.21058ZM89.5918 8.50289L88.7998 6.03089L86.8952 6.64111L87.6872 9.11311L89.5918 8.50289ZM88.2161 7.26558C89.0959 6.91668 89.9155 6.67232 90.6763 6.526L90.2987 4.56199C89.3955 4.73567 88.4551 5.01932 87.4789 5.40642L88.2161 7.26558ZM90.6945 6.52235C91.4671 6.35891 92.1894 6.28 92.8635 6.28V4.28C92.0336 4.28 91.1719 4.37709 90.2805 4.56565L90.6945 6.52235ZM92.8635 6.28C94.0264 6.28 94.8971 6.47258 95.5293 6.79491L96.4377 5.01309C95.4379 4.50342 94.2286 4.28 92.8635 4.28V6.28ZM95.5363 6.79843C96.1773 7.11894 96.5822 7.55157 96.8164 8.09792L98.6546 7.31008C98.2168 6.28843 97.4537 5.52105 96.4307 5.00957L95.5363 6.79843ZM96.8193 8.10482C97.0465 8.6241 97.1123 9.32384 96.903 10.2726L98.856 10.7034C99.1267 9.47616 99.0965 8.3199 98.6517 7.30318L96.8193 8.10482ZM96.901 10.2817L95.317 17.7937L97.274 18.2063L98.858 10.6943L96.901 10.2817ZM96.2955 17H93.1275V19H96.2955V17ZM94.1104 18.1843L94.2544 17.4163L92.2886 17.0477L92.1446 17.8157L94.1104 18.1843ZM92.7489 16.3794C92.3173 16.6439 91.8882 16.8401 91.4612 16.9735L92.0578 18.8825C92.6548 18.6959 93.2337 18.4281 93.7941 18.0846L92.7489 16.3794ZM91.4888 16.9653C91.0694 17.0833 90.6248 17.144 90.1515 17.144V19.144C90.7982 19.144 91.4256 19.0607 92.0302 18.8907L91.4888 16.9653ZM91.2555 16.816C91.7878 16.816 92.3074 16.7493 92.8115 16.6136L92.2915 14.6824C91.9636 14.7707 91.6192 14.816 91.2555 14.816V16.816ZM92.8456 16.6038C93.34 16.4517 93.8079 16.2417 94.2474 15.9742L93.2076 14.2658C92.9111 14.4463 92.595 14.5883 92.2574 14.6922L92.8456 16.6038ZM94.7034 15.3383L95.1114 13.5143L93.1596 13.0777L92.7516 14.9017L94.7034 15.3383ZM94.5688 12.3947C93.5917 11.925 92.5301 11.696 91.3995 11.696V13.696C92.2529 13.696 93.0153 13.867 93.7022 14.1973L94.5688 12.3947ZM91.3995 11.696C90.5226 11.696 89.7047 11.8722 89.038 12.3245L90.161 13.9795C90.3903 13.8238 90.7724 13.696 91.3995 13.696V11.696ZM89.024 12.3342C88.3359 12.8184 87.9515 13.5265 87.9515 14.376H89.9515C89.9515 14.2015 89.9991 14.0936 90.175 13.9698L89.024 12.3342ZM87.9515 14.376C87.9515 15.1889 88.346 15.8477 89.0124 16.2743L90.0906 14.5897C90.0037 14.5341 89.9779 14.4942 89.971 14.482C89.9654 14.4722 89.9515 14.4457 89.9515 14.376H87.9515ZM89.0274 16.2837C89.6588 16.6722 90.4327 16.816 91.2555 16.816V14.816C90.6383 14.816 90.2762 14.7038 90.0756 14.5803L89.0274 16.2837ZM97.6616 22.896L96.6834 22.6882L96.4269 23.896H97.6616V22.896ZM101.358 5.496V4.496H100.548L100.379 5.28822L101.358 5.496ZM104.55 5.496L105.526 5.71293L105.796 4.496H104.55V5.496ZM104.406 6.144L103.429 5.92707L102.926 8.19073L104.918 7.00282L104.406 6.144ZM110.166 6.096L110.69 5.24434L110.69 5.24434L110.166 6.096ZM112.158 8.184L111.286 8.67503L111.29 8.68187L112.158 8.184ZM112.35 13.872L111.432 13.4739L111.429 13.4812L111.426 13.4886L112.35 13.872ZM110.862 16.128L110.146 15.4297L110.146 15.4299L110.862 16.128ZM108.654 17.64L108.256 16.7226L108.249 16.7255L108.654 17.64ZM103.878 17.832L103.506 18.7605L103.516 18.7645L103.527 18.7683L103.878 17.832ZM102.198 16.8L102.867 16.0567L101.585 14.9034L101.22 16.5884L102.198 16.8ZM100.878 22.896V23.896H101.684L101.855 23.1076L100.878 22.896ZM107.814 14.832L107.303 13.9724L107.292 13.9787L107.814 14.832ZM109.23 13.416L110.089 13.9271L110.095 13.917L109.23 13.416ZM109.326 9.72L108.449 10.2008L108.455 10.2116L108.461 10.2221L109.326 9.72ZM105.054 8.352L105.39 9.29374L105.39 9.29374L105.054 8.352ZM103.83 9.072L103.173 8.31739L102.921 8.53715L102.851 8.86478L103.83 9.072ZM102.798 13.944L101.819 13.7368L101.726 14.1773L101.994 14.5392L102.798 13.944ZM104.07 14.976L103.633 15.8758L104.07 14.976ZM98.6398 23.1038L102.336 5.70378L100.379 5.28822L96.6834 22.6882L98.6398 23.1038ZM101.358 6.496H104.55V4.496H101.358V6.496ZM103.573 5.27907L103.429 5.92707L105.382 6.36093L105.526 5.71293L103.573 5.27907ZM104.918 7.00282C105.678 6.54917 106.478 6.328 107.334 6.328V4.328C106.109 4.328 104.957 4.65083 103.893 5.28518L104.918 7.00282ZM107.334 6.328C108.22 6.328 108.98 6.54049 109.642 6.94766L110.69 5.24434C109.687 4.62751 108.559 4.328 107.334 4.328V6.328ZM109.642 6.94766C110.324 7.36771 110.871 7.93747 111.286 8.67501L113.029 7.69299C112.452 6.67053 111.671 5.84829 110.69 5.24434L109.642 6.94766ZM111.29 8.68187C111.692 9.38062 111.902 10.1822 111.902 11.112H113.902C113.902 9.86585 113.616 8.71538 113.025 7.68613L111.29 8.68187ZM111.902 11.112C111.902 11.9772 111.742 12.7605 111.432 13.4739L113.267 14.2701C113.693 13.2875 113.902 12.2308 113.902 11.112H111.902ZM111.426 13.4886C111.123 14.2196 110.697 14.8647 110.146 15.4297L111.577 16.8263C112.306 16.0793 112.873 15.2204 113.273 14.2554L111.426 13.4886ZM110.146 15.4299C109.615 15.9737 108.988 16.4046 108.256 16.7227L109.052 18.5573C110.015 18.1394 110.86 17.5623 111.578 16.8261L110.146 15.4299ZM108.249 16.7255C107.554 17.0331 106.789 17.192 105.942 17.192V19.192C107.047 19.192 108.09 18.9829 109.058 18.5545L108.249 16.7255ZM105.942 17.192C105.316 17.192 104.748 17.0904 104.229 16.8957L103.527 18.7683C104.287 19.0536 105.095 19.192 105.942 19.192V17.192ZM104.249 16.9035C103.711 16.6883 103.253 16.4048 102.867 16.0567L101.529 17.5433C102.102 18.0592 102.764 18.4637 103.506 18.7605L104.249 16.9035ZM101.22 16.5884L99.9003 22.6844L101.855 23.1076L103.175 17.0116L101.22 16.5884ZM100.878 21.896H97.6616V23.896H100.878V21.896ZM105.822 16.36C106.736 16.36 107.585 16.1439 108.335 15.6853L107.292 13.9787C106.891 14.2241 106.411 14.36 105.822 14.36V16.36ZM108.325 15.6915C109.06 15.2543 109.652 14.6625 110.089 13.9271L108.37 12.9049C108.103 13.3535 107.751 13.7057 107.303 13.9725L108.325 15.6915ZM110.095 13.917C110.539 13.1494 110.758 12.3032 110.758 11.4H108.758C108.758 11.9688 108.624 12.4666 108.364 12.915L110.095 13.917ZM110.758 11.4C110.758 10.6156 110.575 9.87965 110.19 9.21786L108.461 10.2221C108.653 10.5523 108.758 10.9364 108.758 11.4H110.758ZM110.202 9.23917C109.842 8.58112 109.327 8.05734 108.676 7.67921L107.671 9.40879C108.012 9.60666 108.266 9.86688 108.449 10.2008L110.202 9.23917ZM108.676 7.67921C108.014 7.29495 107.278 7.112 106.494 7.112V9.112C106.957 9.112 107.341 9.21705 107.671 9.40879L108.676 7.67921ZM106.494 7.112C105.876 7.112 105.281 7.20886 104.717 7.41026L105.39 9.29374C105.722 9.17514 106.087 9.112 106.494 9.112V7.112ZM104.717 7.41026C104.149 7.61323 103.633 7.91773 103.173 8.31739L104.486 9.82661C104.762 9.58627 105.062 9.41077 105.39 9.29374L104.717 7.41026ZM102.851 8.86478L101.819 13.7368L103.776 14.1512L104.808 9.27922L102.851 8.86478ZM101.994 14.5392C102.419 15.1125 102.974 15.556 103.633 15.8758L104.506 14.0762C104.11 13.884 103.817 13.6395 103.601 13.3488L101.994 14.5392ZM103.633 15.8758C104.309 16.2036 105.044 16.36 105.822 16.36V14.36C105.319 14.36 104.886 14.2604 104.506 14.0762L103.633 15.8758ZM117.345 17.496L116.868 18.375L116.877 18.3798L116.886 18.3844L117.345 17.496ZM115.113 15.384L114.254 15.8963L114.258 15.903L115.113 15.384ZM114.825 9.6L113.901 9.21662L113.901 9.21662L114.825 9.6ZM116.289 7.368L117.005 8.06615L117.014 8.05721L116.289 7.368ZM118.449 5.856L118.845 6.77421L118.853 6.77096L118.86 6.76759L118.449 5.856ZM123.993 6.096L123.464 6.94498L123.476 6.95206L123.993 6.096ZM125.985 8.208L126.866 7.73578L126.866 7.73578L125.985 8.208ZM126.681 11.904L125.684 11.8273L125.681 11.8656V11.904H126.681ZM126.585 12.84V13.84H127.443L127.573 12.9921L126.585 12.84ZM117.513 12.84V11.84H116.315L116.529 13.0189L117.513 12.84ZM118.113 14.256L117.306 14.846L117.311 14.8536L117.317 14.8611L118.113 14.256ZM119.265 15.192L118.83 16.0926L118.842 16.0982L119.265 15.192ZM122.361 15.288L122.687 16.2334L122.687 16.2334L122.361 15.288ZM123.585 14.616L124.342 13.9631L123.706 13.2249L122.952 13.842L123.585 14.616ZM125.385 16.704L125.963 17.52L126.861 16.8842L126.142 16.0511L125.385 16.704ZM123.105 17.88L122.801 16.9273L122.801 16.9273L123.105 17.88ZM117.705 10.512L116.763 10.1776L116.289 11.512H117.705V10.512ZM123.681 10.512V11.512H124.893L124.663 10.322L123.681 10.512ZM122.193 8.352L121.717 9.23129L121.717 9.23129L122.193 8.352ZM119.529 8.352L119.095 7.451L119.088 7.45424L119.082 7.45757L119.529 8.352ZM118.425 9.216L117.67 8.55982L117.662 8.56937L117.654 8.57912L118.425 9.216ZM120.609 17.24C119.532 17.24 118.605 17.0215 117.804 16.6076L116.886 18.3844C118.005 18.9625 119.254 19.24 120.609 19.24V17.24ZM117.822 16.617C117.029 16.1872 116.418 15.6058 115.968 14.865L114.258 15.903C114.896 16.9542 115.773 17.7808 116.868 18.375L117.822 16.617ZM115.972 14.8717C115.527 14.1255 115.297 13.2807 115.297 12.312H113.297C113.297 13.6153 113.611 14.8185 114.254 15.8963L115.972 14.8717ZM115.297 12.312C115.297 11.4775 115.449 10.7043 115.749 9.98338L113.901 9.21662C113.497 10.1917 113.297 11.2265 113.297 12.312H115.297ZM115.749 9.98338C116.053 9.24925 116.472 8.61282 117.005 8.0661L115.573 6.6699C114.858 7.40318 114.301 8.25475 113.901 9.21662L115.749 9.98338ZM117.014 8.05721C117.546 7.49703 118.155 7.07178 118.845 6.77421L118.053 4.93779C117.111 5.34422 116.28 5.92697 115.564 6.67879L117.014 8.05721ZM118.86 6.76759C119.542 6.46002 120.273 6.304 121.065 6.304V4.304C120.001 4.304 118.988 4.51598 118.038 4.94441L118.86 6.76759ZM121.065 6.304C122.002 6.304 122.791 6.52586 123.464 6.9449L124.522 5.2471C123.499 4.61014 122.336 4.304 121.065 4.304V6.304ZM123.476 6.95206C124.166 7.36868 124.706 7.93826 125.104 8.68022L126.866 7.73578C126.304 6.68574 125.516 5.84732 124.51 5.23994L123.476 6.95206ZM125.104 8.68022C125.494 9.40871 125.705 10.2815 125.705 11.328H127.705C127.705 10.0065 127.436 8.79929 126.866 7.73578L125.104 8.68022ZM125.705 11.328C125.705 11.4742 125.698 11.6403 125.684 11.8273L127.678 11.9807C127.696 11.7517 127.705 11.5338 127.705 11.328H125.705ZM125.681 11.904C125.681 12.0323 125.659 12.2823 125.597 12.6879L127.573 12.9921C127.639 12.5657 127.681 12.1917 127.681 11.904H125.681ZM126.585 11.84H117.513V13.84H126.585V11.84ZM116.529 13.0189C116.651 13.6891 116.909 14.303 117.306 14.846L118.92 13.666C118.709 13.377 118.567 13.0469 118.497 12.6611L116.529 13.0189ZM117.317 14.8611C117.719 15.39 118.228 15.8018 118.83 16.0926L119.7 14.2914C119.374 14.1342 119.115 13.922 118.909 13.6509L117.317 14.8611ZM118.842 16.0982C119.469 16.3909 120.152 16.528 120.873 16.528V14.528C120.41 14.528 120.021 14.4411 119.688 14.2858L118.842 16.0982ZM120.873 16.528C121.504 16.528 122.11 16.4322 122.687 16.2334L122.035 14.3426C121.684 14.4638 121.298 14.528 120.873 14.528V16.528ZM122.687 16.2334C123.254 16.0379 123.768 15.7585 124.218 15.39L122.952 13.842C122.698 14.0495 122.396 14.2181 122.035 14.3426L122.687 16.2334ZM122.828 15.2689L124.628 17.3569L126.142 16.0511L124.342 13.9631L122.828 15.2689ZM124.807 15.888C124.107 16.3837 123.438 16.7239 122.801 16.9273L123.409 18.8327C124.276 18.5561 125.127 18.1123 125.963 17.52L124.807 15.888ZM122.801 16.9273C122.161 17.1315 121.434 17.24 120.609 17.24V19.24C121.608 19.24 122.545 19.1085 123.409 18.8327L122.801 16.9273ZM117.705 11.512H123.681V9.512H117.705V11.512ZM124.663 10.322C124.544 9.70653 124.319 9.14104 123.974 8.64493L122.332 9.78706C122.499 10.027 122.626 10.3255 122.699 10.702L124.663 10.322ZM123.974 8.64493C123.631 8.1522 123.194 7.75713 122.669 7.47271L121.717 9.23129C121.96 9.36287 122.163 9.5438 122.332 9.78706L123.974 8.64493ZM122.669 7.47271C122.125 7.17783 121.526 7.04 120.897 7.04V9.04C121.228 9.04 121.493 9.11017 121.717 9.23129L122.669 7.47271ZM120.897 7.04C120.267 7.04 119.663 7.17776 119.095 7.451L119.963 9.253C120.259 9.11024 120.567 9.04 120.897 9.04V7.04ZM119.082 7.45757C118.543 7.72693 118.072 8.09793 117.67 8.55982L119.18 9.87218C119.418 9.59807 119.683 9.39307 119.976 9.24643L119.082 7.45757ZM117.654 8.57912C117.268 9.04593 116.974 9.58279 116.763 10.1776L118.647 10.8464C118.788 10.4492 118.974 10.1221 119.196 9.85288L117.654 8.57912Z" fill="black" fill-opacity="0.3"/>
<path d="M0 24V23H-1V24H0ZM127.449 24H128.449V23H127.449V24ZM127.449 26.4V27.4H128.449V26.4H127.449ZM0 26.4H-1V27.4H0V26.4ZM0 25H127.449V23H0V25ZM126.449 24V26.4H128.449V24H126.449ZM127.449 25.4H0V27.4H127.449V25.4ZM1 26.4V24H-1V26.4H1Z" fill="black" fill-opacity="0.3"/>
</svg>
