<svg width="29" height="29" viewBox="0 0 29 29" fill="none" xmlns="http://www.w3.org/2000/svg">
<path d="M21.8595 20.9515H9.34765C8.18457 20.9515 7.06849 20.4581 6.28136 19.6005C5.49422 18.7428 5.09479 17.5915 5.18878 16.4284L6.16388 4.72718C6.19913 4.36298 6.06989 4.01054 5.82317 3.74033C5.57646 3.47012 5.23576 3.32913 4.87157 3.32913H2.83913C2.35745 3.32913 1.95801 2.92969 1.95801 2.44801C1.95801 1.96634 2.35745 1.56689 2.83913 1.56689H4.88333C5.74095 1.56689 6.55157 1.93109 7.12723 2.55374C7.44443 2.90619 7.6794 3.31739 7.80863 3.77557H22.4822C23.6688 3.77557 24.7614 4.2455 25.5602 5.09137C26.3474 5.94899 26.7468 7.06508 26.6528 8.25165L26.0184 17.0628C25.8892 19.2128 24.0095 20.9515 21.8595 20.9515ZM7.86738 5.52605L6.95101 16.5694C6.89227 17.2508 7.11549 17.8969 7.57367 18.4021C8.03185 18.9073 8.66625 19.1775 9.34765 19.1775H21.8595C23.0814 19.1775 24.1857 18.1437 24.2797 16.9219L24.9141 8.11068C24.9611 7.41753 24.7379 6.75963 24.2797 6.27796C23.8215 5.78453 23.1871 5.51429 22.4939 5.51429H7.86738V5.52605Z" fill="#292D32"/>
<path d="M19.5804 26.8253C18.2881 26.8253 17.2307 25.7679 17.2307 24.4756C17.2307 23.1833 18.2881 22.126 19.5804 22.126C20.8727 22.126 21.93 23.1833 21.93 24.4756C21.93 25.7679 20.8727 26.8253 19.5804 26.8253ZM19.5804 23.8882C19.2514 23.8882 18.993 24.1467 18.993 24.4756C18.993 24.8046 19.2514 25.063 19.5804 25.063C19.9093 25.063 20.1678 24.8046 20.1678 24.4756C20.1678 24.1467 19.9093 23.8882 19.5804 23.8882Z" fill="#292D32"/>
<path d="M10.1819 26.8253C8.88962 26.8253 7.83228 25.7679 7.83228 24.4756C7.83228 23.1833 8.88962 22.126 10.1819 22.126C11.4742 22.126 12.5316 23.1833 12.5316 24.4756C12.5316 25.7679 11.4742 26.8253 10.1819 26.8253ZM10.1819 23.8882C9.85297 23.8882 9.59451 24.1467 9.59451 24.4756C9.59451 24.8046 9.85297 25.063 10.1819 25.063C10.5109 25.063 10.7693 24.8046 10.7693 24.4756C10.7693 24.1467 10.5109 23.8882 10.1819 23.8882Z" fill="#292D32"/>
<path d="M25.1609 10.378H11.063C10.5813 10.378 10.1819 9.97852 10.1819 9.49684C10.1819 9.01516 10.5813 8.61572 11.063 8.61572H25.1609C25.6426 8.61572 26.042 9.01516 26.042 9.49684C26.042 9.97852 25.6426 10.378 25.1609 10.378Z" fill="#292D32"/>
</svg>
