<svg width="29" height="29" viewBox="0 0 29 29" fill="none" xmlns="http://www.w3.org/2000/svg">
<path d="M14.098 14.9792C10.3738 14.9792 7.34277 11.9482 7.34277 8.22399C7.34277 4.4998 10.3738 1.46875 14.098 1.46875C17.8222 1.46875 20.8533 4.4998 20.8533 8.22399C20.8533 11.9482 17.8222 14.9792 14.098 14.9792ZM14.098 3.23099C11.3489 3.23099 9.10501 5.4749 9.10501 8.22399C9.10501 10.9731 11.3489 13.217 14.098 13.217C16.8471 13.217 19.091 10.9731 19.091 8.22399C19.091 5.4749 16.8471 3.23099 14.098 3.23099Z" fill="#292D32"/>
<path d="M24.1899 26.7272C23.7082 26.7272 23.3087 26.3278 23.3087 25.8461C23.3087 21.793 19.1734 18.5034 14.0981 18.5034C9.02286 18.5034 4.88748 21.793 4.88748 25.8461C4.88748 26.3278 4.48804 26.7272 4.00636 26.7272C3.52468 26.7272 3.12524 26.3278 3.12524 25.8461C3.12524 20.8296 8.04776 16.7412 14.0981 16.7412C20.1485 16.7412 25.071 20.8296 25.071 25.8461C25.071 26.3278 24.6715 26.7272 24.1899 26.7272Z" fill="#292D32"/>
</svg>
