<svg width="90" height="29" viewBox="0 0 90 29" fill="none" xmlns="http://www.w3.org/2000/svg">
<g clip-path="url(#clip0_107_266)">
<path d="M25.7996 20.5765C25.6584 20.2353 25.526 19.8766 25.3849 19.5705L24.7319 18.1095L24.7054 18.0833C22.7643 13.8841 20.6907 9.61498 18.4937 5.41584L18.4054 5.24087C18.1849 4.82971 17.9643 4.3748 17.7349 3.95489C17.4525 3.45624 17.179 2.9226 16.729 2.4152C16.2903 1.8843 15.7383 1.45656 15.1127 1.16285C14.4871 0.869147 13.8035 0.716797 13.1113 0.716797C12.4191 0.716797 11.7356 0.869147 11.11 1.16285C10.4844 1.45656 9.93232 1.8843 9.49368 2.4152C9.07898 2.9226 8.77015 3.45624 8.4878 3.95489C8.26721 4.40979 8.04663 4.85595 7.81721 5.26712L7.72898 5.44208C5.56721 9.64123 3.45839 13.9104 1.51721 18.1095L1.46427 18.162C1.27016 18.6169 1.04074 19.0893 0.820155 19.5967C0.678979 19.9029 0.537802 20.2353 0.396626 20.6027C0.0154782 21.5649 -0.106234 22.6088 0.0434838 23.6318C0.193202 24.6548 0.609183 25.6214 1.25043 26.4364C1.89168 27.2514 2.73606 27.8867 3.70035 28.2797C4.66465 28.6726 5.71558 28.8097 6.74957 28.6773C7.74086 28.548 8.6954 28.2206 9.55545 27.715C10.7025 27.0764 11.8054 26.1491 13.0407 24.8106C14.276 26.1491 15.4054 27.0764 16.526 27.7238C17.6037 28.3509 18.824 28.697 20.0731 28.7298C21.5196 28.7358 22.9194 28.2227 24.0141 27.2853C25.1088 26.3478 25.8245 25.0494 26.029 23.6296C26.2653 22.6094 26.1853 21.5422 25.7996 20.5677V20.5765ZM13.129 22.0287C11.6113 20.1041 10.6231 18.337 10.2878 16.8235C10.1489 16.2627 10.1189 15.6808 10.1996 15.1089C10.2613 14.6627 10.429 14.269 10.6584 13.9366C11.1878 13.1755 12.1143 12.7031 13.129 12.7031C13.6109 12.6885 14.0889 12.7928 14.5201 13.0065C14.9513 13.2203 15.3222 13.5369 15.5996 13.9279C15.829 14.2778 15.9966 14.6627 16.0496 15.1089C16.1378 15.6163 16.1025 16.2024 15.9613 16.8235C15.626 18.3107 14.6378 20.0953 13.129 22.0287ZM24.3702 23.3234C24.2699 24.0442 23.9809 24.7264 23.5319 25.302C23.083 25.8776 22.4898 26.3265 21.8113 26.604C21.1407 26.884 20.3996 26.9627 19.676 26.884C18.9702 26.7965 18.2643 26.569 17.5407 26.1491C16.3394 25.4129 15.2592 24.4983 14.3378 23.4372C16.1907 21.1626 17.3113 19.0893 17.7349 17.2434C17.9378 16.3686 17.9643 15.5813 17.876 14.8552C17.7659 14.1669 17.507 13.5104 17.1172 12.9306C16.6722 12.3018 16.0781 11.7911 15.3873 11.4433C14.6965 11.0955 13.9301 10.9213 13.1554 10.936C11.5231 10.936 10.0672 11.6883 9.18486 12.9218C8.78766 13.5002 8.53096 14.1619 8.43486 14.8552C8.32016 15.59 8.34663 16.4036 8.57604 17.2434C8.99957 19.0893 10.1466 21.1889 11.9731 23.4547C11.0673 24.5361 9.98459 25.4588 8.77015 26.1841C8.0378 26.604 7.34074 26.8227 6.63486 26.9102C5.53711 27.0496 4.42823 26.7538 3.54924 26.0871C2.67025 25.4204 2.0922 24.4366 1.94074 23.3497C1.85251 22.6498 1.91427 21.95 2.19663 21.1626C2.28486 20.8827 2.41721 20.6027 2.55839 20.2703C2.75251 19.8154 2.98192 19.343 3.20251 18.8706L3.2378 18.8094C5.14368 14.6365 7.22604 10.3761 9.3878 6.20318L9.47604 6.02821C9.69662 5.6083 9.91721 5.16214 10.1466 4.74223C10.376 4.29607 10.6231 3.8674 10.9407 3.51748C11.2157 3.19206 11.5593 2.93036 11.9472 2.7508C12.3352 2.57123 12.7582 2.47818 13.1863 2.47818C13.6145 2.47818 14.0375 2.57123 14.4254 2.7508C14.8134 2.93036 15.157 3.19206 15.4319 3.51748C15.7407 3.8674 15.9966 4.29607 16.226 4.74223C16.4466 5.16214 16.6672 5.61705 16.8966 6.02821L16.9849 6.20318C19.1378 10.3761 21.2202 14.6365 23.1613 18.8094L23.1878 18.8356C23.4172 19.2905 23.6113 19.7979 23.8319 20.2353C23.9731 20.5765 24.1143 20.8477 24.2025 21.1364C24.3702 21.9237 24.4584 22.6236 24.3702 23.3234ZM36.6525 21.8362C35.9876 21.8459 35.3291 21.707 34.7257 21.4298C34.1224 21.1527 33.5897 20.7444 33.1672 20.2353C32.2179 19.1505 31.714 17.7518 31.7554 16.3161C31.7409 14.8492 32.261 13.4264 33.2202 12.3094C33.6638 11.7938 34.2161 11.3809 34.838 11.0998C35.46 10.8187 36.1366 10.6761 36.8202 10.6823C37.4633 10.6648 38.1004 10.8098 38.6715 11.1036C39.2426 11.3975 39.729 11.8305 40.0849 12.3619L40.1731 10.9885H42.7496V21.5563H40.1643L40.076 20.0166C39.7091 20.5841 39.202 21.0491 38.6028 21.3676C38.0036 21.6861 37.3323 21.8474 36.6525 21.8362ZM37.3231 19.3168C37.8349 19.3168 38.2849 19.1768 38.7084 18.9231C39.0966 18.6431 39.4143 18.2757 39.6613 17.8296C39.8819 17.3834 39.9966 16.8498 39.9966 16.2549C40.031 15.7382 39.9296 15.2215 39.7022 14.7554C39.4749 14.2892 39.1294 13.8895 38.6996 13.5954C38.2866 13.3403 37.8097 13.2051 37.3231 13.2051C36.8365 13.2051 36.3596 13.3403 35.9466 13.5954C35.5584 13.8754 35.2407 14.2428 34.9937 14.6889C34.7603 15.181 34.6456 15.7201 34.6584 16.2636C34.624 16.7803 34.7254 17.297 34.9528 17.7631C35.1801 18.2293 35.5256 18.629 35.9554 18.9231C36.3702 19.1768 36.8202 19.3168 37.3231 19.3168ZM47.1613 8.13653C47.1613 8.44272 47.1084 8.72266 46.9672 8.95012C46.826 9.16882 46.6319 9.37003 46.376 9.51C46.1202 9.64997 45.8466 9.70246 45.5643 9.70246C45.2819 9.70246 44.9996 9.64997 44.7437 9.51C44.5017 9.37643 44.2982 9.18369 44.1525 8.95012C44.0159 8.70091 43.9488 8.42003 43.9584 8.13653C43.9584 7.8216 44.0202 7.54166 44.1525 7.32295C44.2937 7.0605 44.4966 6.90304 44.7437 6.76306C44.9996 6.62309 45.2731 6.56185 45.5643 6.56185C45.8451 6.55544 46.1229 6.62139 46.3703 6.75326C46.6178 6.88513 46.8265 7.07841 46.976 7.3142C47.1044 7.56925 47.1681 7.85155 47.1613 8.13653ZM44.1613 21.5213V10.971H46.9672V21.5388H44.1525L44.1613 21.5213ZM54.4672 13.7354V13.7704C54.3349 13.7091 54.1584 13.6829 54.026 13.6567C53.8496 13.6217 53.7084 13.6217 53.5407 13.6217C52.7554 13.6217 52.1643 13.8491 51.776 14.3215C51.3525 14.8027 51.1584 15.4763 51.1584 16.3424V21.5301H48.3437V10.9622H50.929L51.0172 12.5631C51.2996 12.0032 51.6349 11.5833 52.1113 11.2684C52.5853 10.9624 53.1432 10.8096 53.7084 10.831C53.9113 10.831 54.1054 10.8485 54.2731 10.8835C54.3613 10.9097 54.4143 10.9097 54.4672 10.936V13.7354ZM55.5966 21.5213V6.63184H58.4025V12.3182C58.7996 11.8108 59.2496 11.4171 59.8143 11.1109C60.7083 10.6763 61.7239 10.5531 62.6972 10.761C63.6705 10.9689 64.5448 11.4959 65.179 12.2569C66.1304 13.344 66.6344 14.7463 66.5907 16.1849C66.6053 17.6518 66.0851 19.0746 65.126 20.1916C64.6824 20.7072 64.1301 21.1201 63.5081 21.4012C62.8862 21.6823 62.2096 21.8249 61.526 21.8187C60.8829 21.8362 60.2458 21.6912 59.6747 21.3974C59.1036 21.1035 58.6172 20.6705 58.2613 20.1391L58.1731 21.5126L55.5966 21.5388V21.5213ZM61.0231 19.3168C61.526 19.3168 61.976 19.1768 62.3996 18.9231C62.7878 18.6431 63.1054 18.2757 63.3525 17.8296C63.5819 17.3834 63.6878 16.8498 63.6878 16.2549C63.6878 15.6687 63.5819 15.1351 63.3525 14.6889C63.1208 14.2587 62.7952 13.8852 62.3996 13.5954C61.9866 13.3403 61.5097 13.2051 61.0231 13.2051C60.5365 13.2051 60.0596 13.3403 59.6466 13.5954C59.2496 13.8754 58.9407 14.2428 58.6849 14.6889C58.4515 15.181 58.3367 15.7201 58.3496 16.2636C58.3152 16.7803 58.4166 17.297 58.644 17.7631C58.8713 18.2293 59.2168 18.629 59.6466 18.9231C60.0613 19.1768 60.5113 19.3168 61.0231 19.3168ZM67.6496 21.5301V10.9622H70.2349L70.3231 12.3357C70.648 11.8092 71.1088 11.3783 71.658 11.0876C72.2071 10.797 72.8246 10.657 73.4466 10.6823C74.1579 10.6701 74.857 10.8661 75.4565 11.2457C76.056 11.6254 76.5293 12.1719 76.8172 12.8168C77.126 13.4817 77.2937 14.304 77.2937 15.2226V21.5563H74.479V15.59C74.479 14.8552 74.3113 14.2778 73.976 13.8491C73.6407 13.4292 73.1819 13.2018 72.5996 13.2018C72.176 13.2018 71.8055 13.2892 71.479 13.4817C71.1702 13.6829 70.9143 13.9366 70.7202 14.2953C70.5239 14.6578 70.4266 15.065 70.4378 15.4763V21.5301H67.6496ZM78.6966 21.5301V6.62309H81.5113V12.3094C81.8926 11.7992 82.3885 11.3841 82.9598 11.0971C83.5311 10.8101 84.1621 10.6591 84.8025 10.656C85.4674 10.6464 86.1259 10.7853 86.7293 11.0624C87.3326 11.3396 87.8653 11.7478 88.2878 12.2569C89.2325 13.3439 89.7329 14.7419 89.6907 16.1761C89.7061 17.6432 89.1858 19.0662 88.226 20.1828C87.7824 20.6984 87.2301 21.1113 86.6081 21.3925C85.9862 21.6736 85.3096 21.8161 84.626 21.81C83.9829 21.8274 83.3458 21.6824 82.7747 21.3886C82.2036 21.0948 81.7172 20.6618 81.3613 20.1303L81.2819 21.5038L78.6966 21.5301ZM84.1496 19.3168C84.6613 19.3168 85.1113 19.1768 85.526 18.9231C85.9231 18.6431 86.2319 18.2757 86.4878 17.8296C86.7084 17.3834 86.8231 16.8498 86.8231 16.2549C86.8575 15.7382 86.7561 15.2215 86.5287 14.7554C86.3013 14.2892 85.9559 13.8895 85.526 13.5954C85.113 13.3403 84.6362 13.2051 84.1496 13.2051C83.663 13.2051 83.1861 13.3403 82.7731 13.5954C82.3849 13.8754 82.0672 14.2428 81.8202 14.6889C81.5739 15.1766 81.4584 15.7189 81.4849 16.2636C81.4505 16.7803 81.5519 17.297 81.7793 17.7631C82.0066 18.2293 82.3521 18.629 82.7819 18.9231C83.1966 19.1768 83.6202 19.3168 84.1496 19.3168Z" fill="#555555"/>
</g>
<defs>
<clipPath id="clip0_107_266">
<rect width="90" height="27.9943" fill="white" transform="translate(0 0.736328)"/>
</clipPath>
</defs>
</svg>
