<svg width="80" height="25" viewBox="0 0 80 25" fill="none" xmlns="http://www.w3.org/2000/svg">
<g clip-path="url(#clip0_107_295)">
<path d="M59.491 24.0133L66.1626 16.6256L59.491 9.23682H66.5303L69.8346 12.8258L73.0165 9.23682H79.8103L73.1703 16.5951L79.9014 24.0133H72.8332L69.5588 20.3949L66.3153 24.0133H59.491Z" fill="#555555"/>
<path d="M59.4909 5.92441H51.9347V9.23677H59.4909V14.2288H51.9347V18.8108H59.4909V24.0133H46.381V0.736328H59.4909V5.92441Z" fill="#555555"/>
<path d="M40.8507 0.736328V10.2624H40.7898C39.5654 8.87547 38.0357 8.39351 36.2607 8.39351C32.6249 8.39351 29.8861 10.8294 28.9247 14.0498C27.8284 10.5013 25.0009 8.32701 20.8082 8.32701C17.4034 8.32701 14.7147 9.83322 13.3115 12.2876V9.23711H6.27362V5.9251H13.954V0.736328H-0.00012207V24.0136H6.27362V14.2288H12.5268C12.3404 14.9476 12.2409 15.7172 12.2409 16.5292C12.2409 21.3848 16.0047 24.7918 20.8082 24.7918C24.8475 24.7918 27.5094 22.9229 28.9174 19.5156H23.5411C22.8138 20.5391 22.2621 20.8432 20.8082 20.8432C19.1223 20.8432 17.6687 19.3936 17.6687 17.6752H28.6162C29.091 21.5319 32.1394 24.8579 36.3227 24.8579C38.1272 24.8579 39.7794 23.9831 40.7898 22.5061H40.8507V24.013H46.3811V0.736328H40.8507ZM17.8434 14.2984C18.1922 12.8199 19.3557 11.8536 20.8082 11.8536C22.4072 11.8536 23.5115 12.7901 23.802 14.2984C23.9244 14.2984 17.8434 14.2984 17.8434 14.2984ZM37.4945 20.4692C35.4559 20.4692 34.1891 18.5973 34.1891 16.6427C34.1891 14.5534 35.291 12.5443 37.4945 12.5443C39.7794 12.5443 40.6896 14.5534 40.6896 16.6427C40.6893 18.624 39.7248 20.4692 37.4945 20.4692Z" fill="#555555"/>
</g>
<defs>
<clipPath id="clip0_107_295">
<rect width="80" height="23.9951" fill="white" transform="translate(-0.00012207 0.736328)"/>
</clipPath>
</defs>
</svg>
