<svg width="85" height="29" viewBox="0 0 85 29" fill="none" xmlns="http://www.w3.org/2000/svg">
<g clip-path="url(#clip0_107_279)">
<path d="M36.1462 15.0923C36.1462 18.978 33.061 21.8414 29.2749 21.8414C25.4887 21.8414 22.4035 18.978 22.4035 15.0923C22.4035 11.1792 25.4887 8.34326 29.2749 8.34326C33.061 8.34326 36.1462 11.1792 36.1462 15.0923ZM33.1383 15.0923C33.1383 12.6641 31.3502 11.0027 29.2749 11.0027C27.1996 11.0027 25.4115 12.6641 25.4115 15.0923C25.4115 17.4962 27.1996 19.1819 29.2749 19.1819C31.3502 19.1819 33.1383 17.4931 33.1383 15.0923Z" fill="#555555"/>
<path d="M50.9697 15.0923C50.9697 18.978 47.8846 21.8414 44.0984 21.8414C40.3122 21.8414 37.2271 18.978 37.2271 15.0923C37.2271 11.1822 40.3122 8.34326 44.0984 8.34326C47.8846 8.34326 50.9697 11.1792 50.9697 15.0923ZM47.9618 15.0923C47.9618 12.6641 46.1737 11.0027 44.0984 11.0027C42.0231 11.0027 40.235 12.6641 40.235 15.0923C40.235 17.4962 42.0231 19.1819 44.0984 19.1819C46.1737 19.1819 47.9618 17.4931 47.9618 15.0923Z" fill="#555555"/>
<path d="M65.1756 8.751V20.8677C65.1756 25.8519 62.1924 27.8875 58.6656 27.8875C55.3457 27.8875 53.3476 25.6997 52.5941 23.9105L55.2129 22.8364C55.6793 23.9349 56.8219 25.2311 58.6625 25.2311C60.92 25.2311 62.319 23.8588 62.319 21.2754V20.3047H62.214C61.5407 21.1233 60.2437 21.8383 58.6069 21.8383C55.1821 21.8383 52.0444 18.8989 52.0444 15.1167C52.0444 11.307 55.1821 8.34326 58.6069 8.34326C60.2406 8.34326 61.5376 9.05833 62.214 9.85252H62.319V8.75405H65.1756V8.751ZM62.5321 15.1167C62.5321 12.7402 60.9231 11.0027 58.8756 11.0027C56.8003 11.0027 55.0616 12.7402 55.0616 15.1167C55.0616 17.4688 56.8003 19.1819 58.8756 19.1819C60.9231 19.1819 62.5321 17.4688 62.5321 15.1167Z" fill="#555555"/>
<path d="M69.8852 1.64941V21.428H66.9514V1.64941H69.8852Z" fill="#555555"/>
<path d="M81.3179 17.3137L83.6526 18.8473C82.8991 19.9458 81.0832 21.8385 77.9456 21.8385C74.0544 21.8385 71.1484 18.8747 71.1484 15.0894C71.1484 11.0759 74.0791 8.34033 77.609 8.34033C81.1635 8.34033 82.9022 11.1276 83.4704 12.6338L83.7823 13.4006L74.6257 17.1372C75.3268 18.4913 76.4169 19.182 77.9456 19.182C79.4774 19.182 80.5397 18.4396 81.3179 17.3137ZM74.1316 14.8855L80.2525 12.3812C79.9159 11.5384 78.9029 10.9511 77.7109 10.9511C76.1822 10.9511 74.0544 12.2808 74.1316 14.8855Z" fill="#555555"/>
<path d="M11.2984 13.3369V10.4735H21.0912C21.1869 10.9726 21.2363 11.5629 21.2363 12.2019C21.2363 14.3501 20.6403 17.0065 18.7194 18.8992C16.851 20.8162 14.4638 21.8386 11.3015 21.8386C5.43999 21.8386 0.511169 17.1343 0.511169 11.359C0.511169 5.58365 5.43999 0.879395 11.3015 0.879395C14.5441 0.879395 16.8541 2.13305 18.5897 3.76707L16.5391 5.78752C15.2946 4.63732 13.6084 3.74272 11.2984 3.74272C7.01808 3.74272 3.67043 7.1416 3.67043 11.359C3.67043 15.5764 7.01808 18.9753 11.2984 18.9753C14.0747 18.9753 15.6559 17.8768 16.6688 16.8787C17.4903 16.0693 18.0307 14.9131 18.2438 13.3338L11.2984 13.3369Z" fill="#555555"/>
</g>
<defs>
<clipPath id="clip0_107_279">
<rect width="84" height="27.9943" fill="white" transform="translate(0.399902 0.736328)"/>
</clipPath>
</defs>
</svg>
