<svg width="85" height="25" viewBox="0 0 85 25" fill="none" xmlns="http://www.w3.org/2000/svg">
<g clip-path="url(#clip0_107_268)">
<path d="M9.2967 4.70898V11.4774H3.12842V4.70898H0.199951V20.8657H3.12842V14.3171H9.2967V20.8657H12.2252V4.70898H9.2967Z" fill="#555555"/>
<path d="M21.5974 15.6424C21.5974 16.2899 21.3421 16.9109 20.8878 17.3687C20.4334 17.8266 19.8172 18.0838 19.1747 18.0838C18.5321 18.0838 17.9159 17.8266 17.4616 17.3687C17.0072 16.9109 16.752 16.2899 16.752 15.6424V8.72217H13.9742V15.6424C13.9742 17.031 14.5216 18.3627 15.4959 19.3446C16.4702 20.3264 17.7917 20.8781 19.1697 20.8781C20.5476 20.8781 21.8691 20.3264 22.8434 19.3446C23.8177 18.3627 24.3651 17.031 24.3651 15.6424V8.72217H21.5974V15.6424Z" fill="#555555"/>
<path d="M42.1786 9.43571C42.1786 8.01726 43.1098 7.56758 44.1299 7.56758C44.9521 7.56758 46.0382 8.198 46.7485 8.96289L48.5678 6.80268C47.6596 5.56497 45.8173 4.70898 44.3093 4.70898C41.2961 4.70898 39.1167 6.48747 39.1167 9.43571C39.1167 14.9056 45.7513 13.1705 45.7513 16.2316C45.7513 17.1757 44.8416 18.01 43.7999 18.01C42.157 18.01 41.6247 17.2003 40.87 16.3443L38.8512 18.4597C40.1425 20.0575 41.7352 20.8686 43.6435 20.8686C46.506 20.8686 48.8089 19.0685 48.8089 16.2547C48.8089 10.1818 42.1743 12.0687 42.1743 9.43571" fill="#555555"/>
<path d="M83.2228 18.284C81.5814 18.284 81.115 17.5683 81.115 16.4723V11.6212H83.6661V9.16313H81.115V5.91992L78.2985 7.19378V17.0752C78.2985 19.6027 80.0289 20.8766 82.4021 20.8766C82.7743 20.8834 83.1462 20.8534 83.5126 20.7869L84.1999 18.2377C83.89 18.2594 83.5341 18.2811 83.2228 18.2811" fill="#555555"/>
<path d="M32.1706 8.80364C30.7946 8.80364 29.8347 9.20561 28.9064 10.1238V4.80566H26.1243V14.6625C26.1243 18.3525 28.7715 20.88 31.7459 20.88C35.046 20.88 37.9486 18.3077 37.9486 14.8433C37.9486 11.4222 35.277 8.80509 32.1706 8.80509V8.80364ZM32.1534 18.059C31.529 18.059 30.9187 17.8724 30.3996 17.5229C29.8805 17.1734 29.476 16.6766 29.237 16.0953C28.9981 15.514 28.9356 14.8744 29.0574 14.2574C29.1792 13.6403 29.4798 13.0735 29.9213 12.6286C30.3628 12.1838 30.9252 11.8808 31.5375 11.7581C32.1499 11.6353 32.7845 11.6983 33.3613 11.9391C33.9381 12.1798 34.4311 12.5876 34.778 13.1107C35.1248 13.6338 35.31 14.2488 35.31 14.878C35.31 15.7216 34.9774 16.5307 34.3854 17.1273C33.7934 17.7239 32.9905 18.059 32.1534 18.059Z" fill="#555555"/>
<path d="M62.3791 14.6949C62.3791 11.2247 59.4822 8.6582 56.1764 8.6582C53.202 8.6582 50.5548 11.1857 50.5548 14.8757V24.7383H53.3369V19.413C54.2638 20.3297 55.2251 20.7331 56.5997 20.7331C59.7061 20.7331 62.3777 18.1174 62.3777 14.6949H62.3791ZM59.7448 14.6602C59.7448 15.2894 59.5597 15.9044 59.2128 16.4275C58.866 16.9506 58.373 17.3584 57.7962 17.5991C57.2194 17.8399 56.5847 17.9029 55.9724 17.7801C55.3601 17.6574 54.7976 17.3544 54.3562 16.9096C53.9147 16.4647 53.6141 15.8979 53.4923 15.2808C53.3705 14.6638 53.433 14.0242 53.6719 13.4429C53.9108 12.8616 54.3154 12.3648 54.8345 12.0153C55.3536 11.6658 55.9639 11.4792 56.5882 11.4792C57.4254 11.4792 58.2283 11.8143 58.8203 12.4109C59.4122 13.0075 59.7448 13.8166 59.7448 14.6602Z" fill="#555555"/>
<path d="M71.367 8.52261V5.70595C71.7364 5.53202 72.0491 5.25595 72.2688 4.90986C72.4886 4.56377 72.6062 4.16191 72.6081 3.75106V3.68599C72.6081 3.11077 72.3814 2.5591 71.9777 2.15236C71.5741 1.74561 71.0267 1.51711 70.4559 1.51711H70.3913C69.8205 1.51711 69.2731 1.74561 68.8695 2.15236C68.4658 2.5591 68.2391 3.11077 68.2391 3.68599V3.75106C68.241 4.16191 68.3586 4.56377 68.5784 4.90986C68.7981 5.25595 69.1108 5.53202 69.4802 5.70595V8.52261C68.4186 8.68628 67.4187 9.12972 66.5819 9.80803L58.9171 3.79155C58.9713 3.59314 59.0003 3.38858 59.0032 3.18281C59.004 2.69945 58.8626 2.22669 58.5968 1.82434C58.331 1.42198 57.9528 1.1081 57.5099 0.922398C57.0671 0.736697 56.5795 0.687517 56.109 0.78108C55.6384 0.874643 55.2059 1.10674 54.8662 1.44803C54.5266 1.78931 54.295 2.22444 54.2007 2.69838C54.1065 3.17232 54.1539 3.66378 54.3368 4.1106C54.5198 4.55741 54.8301 4.93951 55.2286 5.20855C55.6271 5.4776 56.0958 5.62151 56.5755 5.62209C56.9949 5.6202 57.4065 5.50752 57.7692 5.29531L65.3178 11.2135C64.6395 12.2458 64.2856 13.4602 64.3023 14.6982C64.3189 15.9362 64.7053 17.1404 65.4111 18.1539L63.1154 20.4674C62.9297 20.4076 62.7363 20.376 62.5414 20.3734C62.1477 20.3737 61.7628 20.4916 61.4355 20.7122C61.1083 20.9329 60.8532 21.2463 60.7027 21.613C60.5521 21.9796 60.5128 22.3831 60.5897 22.7722C60.6666 23.1614 60.8562 23.5189 61.1346 23.7995C61.4131 24.0801 61.7678 24.2712 62.154 24.3486C62.5402 24.4261 62.9405 24.3865 63.3043 24.2348C63.6682 24.0831 63.9792 23.8261 64.1982 23.4962C64.4171 23.1664 64.5341 22.7786 64.5344 22.3818C64.5319 22.1854 64.5005 21.9905 64.4411 21.8034L66.7124 19.5145C67.4531 20.0889 68.3143 20.4848 69.2302 20.6719C70.1461 20.8591 71.0924 20.8325 71.9965 20.5942C72.9006 20.3559 73.7386 19.9123 74.4464 19.2973C75.1541 18.6822 75.7127 17.9121 76.0795 17.0459C76.4463 16.1797 76.6115 15.2404 76.5625 14.2999C76.5134 13.3595 76.2514 12.4428 75.7966 11.6201C75.3417 10.7974 74.7061 10.0906 73.9383 9.55366C73.1705 9.01676 72.2909 8.66407 71.367 8.52261ZM70.4258 17.7852C69.8045 17.7846 69.1973 17.5985 68.6809 17.2502C68.1646 16.902 67.7623 16.4073 67.5249 15.8287C67.2874 15.2502 67.2255 14.6136 67.347 13.9996C67.4684 13.3856 67.7678 12.8216 68.2072 12.379C68.6466 11.9364 69.2064 11.635 69.8158 11.5129C70.4251 11.3907 71.0567 11.4534 71.6308 11.693C72.2048 11.9325 72.6955 12.3381 73.0408 12.8586C73.3861 13.3791 73.5706 13.9911 73.5709 14.6172C73.5709 15.457 73.2398 16.2624 72.6505 16.8563C72.0612 17.4501 71.262 17.7838 70.4286 17.7838" fill="#555555"/>
</g>
<defs>
<clipPath id="clip0_107_268">
<rect width="84" height="23.9951" fill="white" transform="translate(0.199951 0.736328)"/>
</clipPath>
</defs>
</svg>
