<svg width="123" height="27" viewBox="0 0 123 27" fill="none" xmlns="http://www.w3.org/2000/svg">
<g clip-path="url(#clip0_107_286)">
<path d="M43.6634 15.7094L42.9363 17.7648H42.8757C42.7545 17.3013 42.5323 16.596 42.1687 15.7497L38.2704 5.9765H34.4528V21.5532H36.9777V11.9412C36.9777 11.3366 36.9777 10.6515 36.9575 9.80518C36.9373 9.38201 36.8969 9.05959 36.8767 8.81778H36.9373C37.0584 9.42231 37.1998 9.86563 37.3008 10.1477L41.9869 21.5129H43.7644L48.4101 10.047C48.5111 9.78503 48.6121 9.2611 48.7131 8.81778H48.7737C48.7131 9.96639 48.6727 10.9941 48.6525 11.6188V21.4927H51.3389V5.9362H47.6628L43.6634 15.7094ZM53.8839 10.3291H56.5098V21.4927H53.8839V10.3291ZM55.2171 5.61379C54.7727 5.61379 54.4091 5.77499 54.1061 6.05711C53.8031 6.33922 53.6416 6.70194 53.6416 7.14526C53.6416 7.56843 53.8031 7.93114 54.1061 8.21326C54.4091 8.49537 54.7727 8.63643 55.2171 8.63643C55.6614 8.63643 56.0452 8.47522 56.328 8.21326C56.631 7.93114 56.7926 7.56843 56.7926 7.14526C56.7926 6.72209 56.631 6.35937 56.328 6.05711C56.0654 5.77499 55.6816 5.61379 55.2171 5.61379ZM65.8214 10.2283C65.3366 10.1276 64.8316 10.0671 64.3469 10.0671C63.1551 10.0671 62.0644 10.3291 61.1555 10.853C60.2465 11.377 59.5194 12.1024 59.0548 13.0092C58.57 13.9361 58.3276 15.0041 58.3276 16.2333C58.3276 17.3013 58.57 18.2484 59.0346 19.1149C59.4992 19.9612 60.1455 20.6464 61.0141 21.1098C61.8422 21.5733 62.8118 21.8151 63.9025 21.8151C65.1548 21.8151 66.2253 21.5532 67.0737 21.0695L67.0939 21.0494V18.6313L66.9929 18.7119C66.6091 18.994 66.1647 19.2358 65.7204 19.3769C65.2558 19.5381 64.8316 19.6187 64.4681 19.6187C63.4177 19.6187 62.5896 19.3164 62.0038 18.6514C61.3978 18.0066 61.0949 17.12 61.0949 16.0117C61.0949 14.8631 61.3979 13.9563 62.024 13.2913C62.6502 12.6263 63.4783 12.2837 64.4882 12.2837C65.3366 12.2837 66.2051 12.5659 66.9929 13.1301L67.0939 13.2107V10.6515L67.0737 10.6314C66.7303 10.4903 66.3465 10.3291 65.8214 10.2283ZM74.4866 10.1477C73.8402 10.1477 73.2343 10.3493 72.7091 10.7724C72.2647 11.1351 71.9618 11.6591 71.6992 12.2837H71.679V10.3291H69.0531V21.4927H71.679V15.79C71.679 14.8228 71.881 14.0167 72.3253 13.4323C72.7697 12.8278 73.3353 12.5256 74.022 12.5256C74.2644 12.5256 74.5068 12.586 74.8098 12.6263C75.0925 12.7069 75.2945 12.7875 75.4359 12.8883L75.5369 12.9689V10.3493L75.4763 10.3291C75.2945 10.2082 74.931 10.1477 74.4866 10.1477ZM81.6369 10.0873C79.7988 10.0873 78.3243 10.6314 77.2942 11.6994C76.2439 12.7674 75.7389 14.2384 75.7389 16.0923C75.7389 17.8252 76.2641 19.2358 77.274 20.2635C78.2839 21.2711 79.6574 21.795 81.3743 21.795C83.172 21.795 84.6061 21.2509 85.6363 20.1628C86.6866 19.0746 87.1916 17.6237 87.1916 15.8303C87.1916 14.057 86.7068 12.6465 85.717 11.6188C84.7677 10.5911 83.374 10.0873 81.6369 10.0873ZM83.7376 18.6716C83.2528 19.2963 82.4853 19.5985 81.5359 19.5985C80.5866 19.5985 79.819 19.2963 79.2737 18.6313C78.7283 18.0066 78.4657 17.0998 78.4657 15.9512C78.4657 14.7623 78.7485 13.8555 79.2737 13.2107C79.819 12.5659 80.5664 12.2434 81.5157 12.2434C82.4449 12.2434 83.172 12.5457 83.6972 13.1704C84.2223 13.7951 84.5051 14.7019 84.5051 15.8908C84.4647 17.0998 84.2425 18.0469 83.7376 18.6716ZM93.0492 14.9638C92.221 14.6213 91.6959 14.3593 91.4535 14.1376C91.2515 13.9361 91.1505 13.654 91.1505 13.2913C91.1505 12.989 91.2717 12.6868 91.5747 12.4853C91.8776 12.2837 92.221 12.183 92.726 12.183C93.1704 12.183 93.6349 12.2636 94.0793 12.3845C94.5237 12.5054 94.9276 12.6868 95.2508 12.9286L95.3518 13.0092V10.5508L95.2912 10.5306C94.9882 10.4097 94.5843 10.2888 94.0995 10.188C93.6147 10.1074 93.1704 10.0671 92.8068 10.0671C91.5545 10.0671 90.5243 10.3694 89.7164 11.0344C88.9084 11.6591 88.5247 12.5054 88.5247 13.4928C88.5247 14.0167 88.6055 14.4802 88.7873 14.8631C88.969 15.2459 89.2316 15.6086 89.5952 15.9109C89.9588 16.193 90.4839 16.5154 91.2111 16.8177C91.8171 17.0797 92.2816 17.2812 92.5644 17.4424C92.8472 17.6036 93.029 17.7849 93.1704 17.926C93.2714 18.0872 93.332 18.2887 93.332 18.5507C93.332 19.2963 92.7664 19.659 91.6151 19.659C91.1707 19.659 90.7061 19.5784 90.1608 19.397C89.6154 19.2157 89.1104 18.9537 88.6863 18.6514L88.5853 18.5708V21.13L88.6459 21.1502C89.0296 21.3315 89.4942 21.4524 90.0598 21.5935C90.6253 21.6942 91.1303 21.7748 91.5747 21.7748C92.928 21.7748 94.0389 21.4726 94.8267 20.8076C95.6346 20.1628 96.0588 19.3366 96.0588 18.2686C96.0588 17.523 95.8568 16.858 95.4124 16.3542C94.8267 15.8706 94.0995 15.3668 93.0492 14.9638ZM102.987 10.0873C101.149 10.0873 99.6743 10.6314 98.6442 11.6994C97.6141 12.7674 97.0889 14.2384 97.0889 16.0923C97.0889 17.8252 97.6141 19.2358 98.624 20.2635C99.6339 21.2711 101.007 21.795 102.724 21.795C104.522 21.795 105.956 21.2509 106.986 20.1628C108.037 19.0746 108.542 17.6237 108.542 15.8303C108.542 14.057 108.057 12.6465 107.067 11.6188C106.118 10.5911 104.724 10.0873 102.987 10.0873ZM105.067 18.6716C104.583 19.2963 103.815 19.5985 102.866 19.5985C101.896 19.5985 101.149 19.2963 100.603 18.6313C100.058 18.0066 99.7955 17.0998 99.7955 15.9512C99.7955 14.7623 100.078 13.8555 100.603 13.2107C101.149 12.5659 101.896 12.2434 102.846 12.2434C103.754 12.2434 104.502 12.5457 105.027 13.1704C105.552 13.7951 105.835 14.7019 105.835 15.8908C105.835 17.0998 105.572 18.0469 105.067 18.6716ZM122.58 12.4853V10.3291H119.934V7.02435L119.853 7.0445L117.348 7.79009L117.288 7.81024V10.3291H113.329V8.91854C113.329 8.27371 113.49 7.76993 113.773 7.44752C114.056 7.12511 114.48 6.9639 115.005 6.9639C115.369 6.9639 115.752 7.0445 116.177 7.22586L116.278 7.28631V5.00926L116.217 4.98911C115.853 4.8682 115.369 4.7876 114.743 4.7876C113.955 4.7876 113.268 4.96896 112.642 5.27122C112.016 5.61379 111.551 6.07726 111.208 6.70194C110.864 7.30646 110.683 7.9916 110.683 8.77748V10.3291H108.845V12.4651H110.683V21.4927H113.329V12.4853H117.288V18.2283C117.288 20.5859 118.399 21.7748 120.62 21.7748C120.984 21.7748 121.368 21.7144 121.731 21.6539C122.115 21.5733 122.398 21.4726 122.559 21.392L122.58 21.3718V19.2157L122.479 19.2963C122.317 19.397 122.176 19.4776 121.933 19.5381C121.731 19.5985 121.549 19.6187 121.408 19.6187C120.883 19.6187 120.519 19.4978 120.257 19.1955C120.014 18.9134 119.893 18.4499 119.893 17.7648V12.4853H122.58Z" fill="#555555"/>
<path d="M0.599854 0.736328H12.9816V13.0888H0.599854V0.736328Z" fill="#555555"/>
<path d="M14.2743 0.736328H26.6561V13.0888H14.2743V0.736328Z" fill="#555555"/>
<path d="M0.599854 14.3784H12.9816V26.7309H0.599854V14.3784Z" fill="#555555"/>
<path d="M14.2743 14.3784H26.6561V26.7309H14.2743V14.3784Z" fill="#555555"/>
</g>
<defs>
<clipPath id="clip0_107_286">
<rect width="122" height="25.9947" fill="white" transform="translate(0.599854 0.736328)"/>
</clipPath>
</defs>
</svg>
