<svg width="112" height="27" viewBox="0 0 112 27" fill="none" xmlns="http://www.w3.org/2000/svg">
<g clip-path="url(#clip0_107_292)">
<path d="M40.3018 9.98215V11.4553H40.3468C40.877 10.6666 41.7572 9.73771 43.7083 9.73771C45.2261 9.73771 46.3905 10.5101 46.8895 11.677H46.9345C47.3608 11.087 47.8494 10.6405 48.3969 10.3244C49.0449 9.94956 49.7657 9.73445 50.6737 9.73445C52.7286 9.73445 54.548 11.0707 54.548 14.4408V20.8322H51.4153V14.8873C51.4153 13.1795 50.7984 12.1919 49.5162 12.1919C48.5771 12.1919 47.8944 12.7851 47.6345 13.5152C47.5444 13.7661 47.5028 14.1083 47.5028 14.3952V20.8354H44.3701V14.6461C44.3701 13.1958 43.7776 12.1887 42.5127 12.1887C41.5008 12.1887 40.8666 12.9383 40.6067 13.5803C40.4958 13.8541 40.4612 14.1703 40.4612 14.4669V20.8322H37.325V9.98215H40.3018ZM70.7175 9.98215V12.029H70.8041C71.3793 10.4645 72.7447 9.73771 73.9437 9.73771C74.2452 9.73771 74.4116 9.76052 74.6541 9.80615V12.6482C74.3665 12.6091 74.0997 12.57 73.7254 12.57C72.367 12.57 71.4209 13.3131 71.1818 14.4766C71.1298 14.7178 71.1125 14.9786 71.1125 15.2784V20.8354H67.8966V9.98215H70.7175ZM79.0205 6.38721V9.80289H81.7374V12.5667H79.0205V16.644C79.0205 17.964 79.3774 18.6028 80.4379 18.6028C80.9369 18.6028 81.3042 18.5442 81.623 18.4692L81.6646 20.7605C81.2384 20.9104 80.3304 21.0733 79.4086 21.0733C78.324 21.0733 77.4195 20.7181 76.8685 20.1673C76.2378 19.5382 75.9467 18.5083 75.9467 17.0417V6.38721H79.0205ZM35.1418 20.8322H32.023V6.38721H35.1418V20.8322ZM26.8249 16.9569C26.8249 17.1557 26.8076 17.3643 26.7487 17.5436C26.5061 18.2965 25.6779 18.932 24.6452 18.932C23.7823 18.932 23.0961 18.4725 23.0961 17.498C23.0961 16.0085 24.8427 15.5946 26.8284 15.6043V16.9569H26.8249ZM29.9403 14.3593C29.9403 11.8986 28.8244 9.73771 25.0506 9.73771C23.1135 9.73771 21.5748 10.2494 20.7362 10.7057L21.3496 12.6808C22.1154 12.2245 23.3387 11.8497 24.4962 11.8497C26.4125 11.8464 26.7244 12.8698 26.7244 13.5249V13.6814C22.5486 13.6749 19.9115 15.034 19.9115 17.8043C19.9115 19.4959 21.2526 21.0799 23.5882 21.0799C25.0264 21.0799 26.2254 20.5421 26.9462 19.6784H27.0155C27.0155 19.6784 27.4937 21.5525 30.1205 20.8354C29.9819 20.0532 29.9368 19.2221 29.9368 18.2215V14.3593H29.9403ZM4.24446 6.38721C4.56674 7.91579 5.4816 12.3549 5.4816 12.3549C5.86626 14.18 6.21973 16.0932 6.48656 17.6055H6.53508C6.79498 15.9987 7.2039 14.4766 7.64053 12.5928L9.18263 6.38721H12.596L14.0376 12.7525C14.4154 14.5223 14.7168 15.8879 14.956 17.5338H15.001C15.2609 15.8716 15.6005 14.4506 15.9713 12.6319L17.3575 6.38721H20.6323L16.5743 20.8322C13.9891 21.3634 12.998 20.3856 12.6445 18.8342C12.2911 17.2796 11.598 14.3235 11.598 14.3235C11.2411 12.7036 10.9638 11.5629 10.7698 9.90067H10.7213C10.444 11.5466 10.1529 12.7004 9.72323 14.3202L8.02173 20.8354C5.3811 21.3308 4.46624 20.5975 3.9603 18.6061C3.52366 16.9015 0.799866 6.39047 0.799866 6.39047H4.24446V6.38721ZM62.6986 16.9569C62.6986 17.1557 62.6812 17.3643 62.6223 17.5436C62.3797 18.2965 61.5515 18.932 60.5188 18.932C59.6559 18.932 58.9698 18.4725 58.9698 17.498C58.9698 16.0085 60.7164 15.5946 62.702 15.6043V16.9569H62.6986ZM65.8139 14.3593C65.8139 11.8986 64.6981 9.73771 60.9243 9.73771C58.9871 9.73771 57.4485 10.2494 56.6099 10.7057L57.2232 12.6808C57.9891 12.2245 59.2124 11.8497 60.3698 11.8497C62.2827 11.8464 62.5981 12.8698 62.5981 13.5249V13.6814C58.4257 13.6749 55.7886 15.034 55.7886 17.8043C55.7886 19.4959 57.1331 21.0799 59.4654 21.0799C60.9 21.0799 62.1025 20.5421 62.8198 19.6784H62.8926C62.8926 19.6784 63.3708 21.5525 65.9976 20.8354C65.859 20.0532 65.8139 19.2221 65.8139 18.2215V14.3593Z" fill="#555555"/>
<path d="M94.3801 15.8574C94.6875 16.3849 94.6668 16.9737 94.3387 17.2425L88.6668 21.1598C88.0761 21.4967 87.1918 21.0883 86.6909 20.2341C86.1866 19.3764 86.2764 18.4201 86.8671 18.0831L93.1469 15.2039C93.5407 15.0542 94.0727 15.3298 94.3801 15.8574ZM101.845 15.8574C102.156 15.3298 102.684 15.0576 103.078 15.2005L109.361 18.0797C109.952 18.4167 110.038 19.373 109.537 20.2306C109.033 21.0849 108.145 21.4899 107.558 21.1564L101.886 17.2391C101.561 16.9737 101.537 16.3815 101.845 15.8574ZM98.1107 17.981C98.729 17.981 99.2368 18.2941 99.3059 18.706L99.9173 25.5058C99.9173 26.1797 99.1193 26.731 98.1141 26.731C97.1124 26.731 96.311 26.1797 96.311 25.5058L96.919 18.706C96.9881 18.2941 97.4958 17.981 98.1107 17.981ZM101.886 10.2282L107.558 6.30759C108.145 5.97066 109.033 6.37566 109.537 7.2333C110.038 8.09094 109.952 9.04728 109.361 9.38421L103.078 12.2668C102.684 12.4098 102.152 12.1375 101.845 11.61C101.537 11.0825 101.561 10.4937 101.886 10.2282ZM93.1469 12.2668L86.8671 9.38421C86.2799 9.04728 86.1901 8.09094 86.6909 7.2333C87.1918 6.37566 88.0795 5.97066 88.6668 6.30759L94.3387 10.2282C94.6668 10.4903 94.6875 11.0825 94.3801 11.61C94.0727 12.1375 93.5407 12.4098 93.1469 12.2668ZM96.919 8.7614L96.311 1.96153C96.311 1.28767 97.109 0.736328 98.1141 0.736328C99.1193 0.736328 99.9173 1.28767 99.9173 1.96153L99.3059 8.7614C99.2368 9.1698 98.729 9.48631 98.1107 9.48631C97.4958 9.48631 96.9881 9.1698 96.919 8.7614ZM111.071 21.1325V20.9624H111.226C111.278 20.9624 111.313 20.9964 111.313 21.0475C111.313 21.0951 111.278 21.1325 111.226 21.1325H111.071ZM110.943 21.4422C110.943 21.4593 110.957 21.4763 110.978 21.4763H111.043C111.061 21.4763 111.078 21.4593 111.078 21.4422V21.2482H111.185L111.271 21.4524C111.278 21.4661 111.289 21.4763 111.302 21.4763H111.382C111.406 21.4763 111.423 21.4524 111.413 21.4286C111.382 21.3674 111.351 21.3027 111.32 21.238C111.372 21.221 111.451 21.17 111.451 21.0475C111.451 20.9181 111.344 20.8433 111.237 20.8433H110.978C110.96 20.8433 110.943 20.8603 110.943 20.8773V21.4422ZM110.663 21.1598C110.663 20.8841 110.891 20.6595 111.171 20.6595C111.451 20.6595 111.679 20.8807 111.679 21.1598C111.679 21.4354 111.454 21.6601 111.171 21.6601C110.888 21.6601 110.663 21.4354 110.663 21.1598ZM110.543 21.1598C110.543 21.5001 110.822 21.7792 111.171 21.7792C111.517 21.7792 111.8 21.5001 111.8 21.1598C111.8 20.8194 111.517 20.5404 111.171 20.5404C110.822 20.5404 110.543 20.8194 110.543 21.1598Z" fill="#555555"/>
</g>
<defs>
<clipPath id="clip0_107_292">
<rect width="111" height="25.9947" fill="white" transform="translate(0.799866 0.736328)"/>
</clipPath>
</defs>
</svg>
